<?xml version="1.0" encoding="UTF-8" standalone="no"?>
<svg
   xmlns:dc="http://purl.org/dc/elements/1.1/"
   xmlns:cc="http://creativecommons.org/ns#"
   xmlns:rdf="http://www.w3.org/1999/02/22-rdf-syntax-ns#"
   xmlns:svg="http://www.w3.org/2000/svg"
   xmlns="http://www.w3.org/2000/svg"
   xmlns:sodipodi="http://sodipodi.sourceforge.net/DTD/sodipodi-0.dtd"
   xmlns:inkscape="http://www.inkscape.org/namespaces/inkscape"
   viewBox="0 0 44.999998 44.999998"
   version="1.1"
   xml:space="preserve"
   x="0px"
   y="0px"
   width="0.5in"
   height="0.5in"
   id="svg2"
   inkscape:version="0.91 r13725"
   sodipodi:docname="protein5-specification.svg"
   inkscape:export-filename="protein5-specification.png"
   inkscape:export-xdpi="300"
   inkscape:export-ydpi="300"><metadata
     id="metadata12"><rdf:RDF><cc:Work
         rdf:about=""><dc:format>image/svg+xml</dc:format><dc:type
           rdf:resource="http://purl.org/dc/dcmitype/StillImage" /><dc:title /></cc:Work></rdf:RDF></metadata><sodipodi:namedview
     pagecolor="#ffffff"
     bordercolor="#666666"
     borderopacity="1"
     objecttolerance="10"
     gridtolerance="10"
     guidetolerance="10"
     inkscape:pageopacity="0"
     inkscape:pageshadow="2"
     inkscape:window-width="944"
     inkscape:window-height="738"
     id="namedview10"
     showgrid="false"
     units="in"
     inkscape:zoom="13.350176"
     inkscape:cx="22.603028"
     inkscape:cy="21.626025"
     inkscape:window-x="0"
     inkscape:window-y="0"
     inkscape:window-maximized="0"
     inkscape:current-layer="svg2" /><defs
     id="defs4"><style
       type="text/css"
       id="style6"><![CDATA[
      path,circle,polygon {
        stroke:#000000;
        stroke-width: 3;
        stroke-linecap: round;
        stroke-linejoin: round;
        fill: none
      }]]></style></defs><path
     style="opacity:1;fill:#ffffff;fill-opacity:1;stroke:#000000;stroke-width:0.99999988;stroke-linecap:round;stroke-linejoin:round;stroke-miterlimit:4;stroke-dasharray:none;stroke-dashoffset:0;stroke-opacity:1"
     d="m 22.605828,16.300019 a 8.552722,6.2002556 0 0 0 -8.106926,4.160018 l -3.054082,0 0,0.03155 a 1.5655829,2.0415476 0 0 0 -0.229812,-0.03155 l -0.03477,0 a 1.5655829,2.0415476 0 0 0 -1.5723987,2.018891 1.5655829,2.0415476 0 0 0 1.5391367,2.062264 1.5655829,2.0415476 0 0 0 0.297848,-0.03155 l 0,0.03155 3.05257,0 a 8.552722,6.2002556 0 0 0 7.931542,4.158047 8.552722,6.2002556 0 0 0 8.209736,-4.158047 l 2.916498,0 0,-0.03155 a 1.5655829,2.0415476 0 0 0 0.297848,0.03155 1.5655829,2.0415476 0 0 0 1.539137,-2.062264 1.5655829,2.0415476 0 0 0 -1.572399,-2.018891 l -0.03477,0 a 1.5655829,2.0415476 0 0 0 -0.229812,0.03155 l 0,-0.03155 -2.914986,0 A 8.552722,6.2002556 0 0 0 22.802385,16.30199 l -0.196549,-0.002 z"
     id="path3334"
     inkscape:connector-curvature="0" /></svg>