<?xml version="1.0" encoding="UTF-8" standalone="no"?>
<svg
   xmlns:dc="http://purl.org/dc/elements/1.1/"
   xmlns:cc="http://creativecommons.org/ns#"
   xmlns:rdf="http://www.w3.org/1999/02/22-rdf-syntax-ns#"
   xmlns:svg="http://www.w3.org/2000/svg"
   xmlns="http://www.w3.org/2000/svg"
   xmlns:sodipodi="http://sodipodi.sourceforge.net/DTD/sodipodi-0.dtd"
   xmlns:inkscape="http://www.inkscape.org/namespaces/inkscape"
   viewBox="0 0 44.999998 44.999998"
   version="1.1"
   xml:space="preserve"
   x="0px"
   y="0px"
   width="0.5in"
   height="0.5in"
   id="svg2"
   inkscape:version="0.91 r13725"
   sodipodi:docname="protein4-specification.svg"
   inkscape:export-filename="protein3-specification.png"
   inkscape:export-xdpi="300"
   inkscape:export-ydpi="300"><metadata
     id="metadata12"><rdf:RDF><cc:Work
         rdf:about=""><dc:format>image/svg+xml</dc:format><dc:type
           rdf:resource="http://purl.org/dc/dcmitype/StillImage" /><dc:title></dc:title></cc:Work></rdf:RDF></metadata><sodipodi:namedview
     pagecolor="#ffffff"
     bordercolor="#666666"
     borderopacity="1"
     objecttolerance="10"
     gridtolerance="10"
     guidetolerance="10"
     inkscape:pageopacity="0"
     inkscape:pageshadow="2"
     inkscape:window-width="944"
     inkscape:window-height="738"
     id="namedview10"
     showgrid="false"
     units="in"
     inkscape:zoom="13.350176"
     inkscape:cx="22.603028"
     inkscape:cy="21.626025"
     inkscape:window-x="0"
     inkscape:window-y="0"
     inkscape:window-maximized="0"
     inkscape:current-layer="svg2" /><defs
     id="defs4"><style
       type="text/css"
       id="style6"><![CDATA[
      path,circle,polygon {
        stroke:#000000;
        stroke-width: 3;
        stroke-linecap: round;
        stroke-linejoin: round;
        fill: none
      }]]></style></defs><path
     style="opacity:1;fill:#ffffff;fill-opacity:1;stroke:#000000;stroke-width:1;stroke-linecap:round;stroke-linejoin:round;stroke-miterlimit:4;stroke-dasharray:none;stroke-dashoffset:0;stroke-opacity:1"
     d="M 16.652344 15.496094 A 7.0036529 7.0036529 0 0 0 9.8574219 20.710938 A 3.7827217 1.8726345 0 0 0 8.859375 20.628906 L 8.7714844 20.626953 A 3.7827217 1.8726345 0 0 0 4.9726562 22.480469 A 3.7827217 1.8726345 0 0 0 8.6933594 24.373047 A 3.7827217 1.8726345 0 0 0 9.8496094 24.289062 A 7.0036529 7.0036529 0 0 0 16.507812 29.501953 A 7.0036529 7.0036529 0 0 0 22.5 26.289062 A 7.0036529 7.0036529 0 0 0 28.492188 29.501953 A 7.0036529 7.0036529 0 0 0 35.150391 24.289062 A 3.7827217 1.8726345 0 0 0 36.306641 24.373047 A 3.7827217 1.8726345 0 0 0 40.027344 22.480469 A 3.7827217 1.8726345 0 0 0 36.228516 20.626953 L 36.140625 20.628906 A 3.7827217 1.8726345 0 0 0 35.142578 20.710938 A 7.0036529 7.0036529 0 0 0 28.347656 15.496094 L 28.1875 15.498047 A 7.0036529 7.0036529 0 0 0 22.5 18.707031 A 7.0036529 7.0036529 0 0 0 16.8125 15.498047 L 16.652344 15.496094 z "
     id="path3561" /></svg>