<?xml version="1.0" encoding="iso-8859-1"?>
<!DOCTYPE svg PUBLIC "-//W3C//DTD SVG 1.1//EN" "http://www.w3.org/Graphics/SVG/1.1/DTD/svg11.dtd">
<svg version="1.1" xmlns="http://www.w3.org/2000/svg" xmlns:xlink="http://www.w3.org/1999/xlink" x="0px" y="0px"
width="224px" height="92.79998779296875px" viewBox="0 0 224 92.79998779296875" xml:space="preserve">
<title>Untitled VisBOL Design</title>
<desc>Generated by the VisBOL design visualizer at http://visbol.org</desc>
<g id="SvgjsG1005" transform="matrix(1 0 0 1 16 16)"></g><g id="SvgjsG1006" transform="matrix(1 0 0 1 16 16)"></g><g id="SvgjsG1009" transform="matrix(1 0 0 1 22 -268)"></g><g id="SvgjsG1205" transform="matrix(1 0 0 1 22 -268.015625)"></g><g id="SvgjsG1247" transform="matrix(1 0 0 1 122 -149.27188110351562)"></g><g id="SvgjsG1260" transform="matrix(1 0 0 1 122 -159.671875)"></g><g id="SvgjsG1274" transform="matrix(1 0 0 1 122 -159.671875)"></g><g id="SvgjsG1288" transform="matrix(1 0 0 1 122 -159.671875)"></g><g id="SvgjsG1302" transform="matrix(1 0 0 1 122 -159.671875)"></g><g id="SvgjsG1316" transform="matrix(1 0 0 1 122 -159.671875)"></g><g id="SvgjsG1330" transform="matrix(1 0 0 1 122 -159.671875)"></g><g id="SvgjsG1344" transform="matrix(1 0 0 1 122 -159.671875)"></g><g id="SvgjsG1358" transform="matrix(1 0 0 1 122 -159.671875)"></g><g id="SvgjsG1372" transform="matrix(1 0 0 1 122 -159.671875)"></g><g id="SvgjsG1386" transform="matrix(1 0 0 1 122 -159.671875)"></g><g id="SvgjsG1400" transform="matrix(1 0 0 1 122 -159.671875)"></g><g id="SvgjsG1414" transform="matrix(1 0 0 1 122 -159.671875)"></g><g id="SvgjsG1429" transform="matrix(1 0 0 1 122 -159.671875)"></g><g id="SvgjsG1444" transform="matrix(1 0 0 1 122 -159.671875)"></g><g id="SvgjsG1459" transform="matrix(1 0 0 1 70 -244)"></g><g id="SvgjsG1474" transform="matrix(1 0 0 1 70 -244)"></g><g id="SvgjsG1489" transform="matrix(1 0 0 1 70 -244)"></g><g id="SvgjsG1504" transform="matrix(1 0 0 1 70 -244)"></g><g id="SvgjsG1519" transform="matrix(1 0 0 1 70 -244)"></g><g id="SvgjsG1534" transform="matrix(1 0 0 1 70 -244)"></g><g id="SvgjsG1549" transform="matrix(1 0 0 1 70 -244)"></g><g id="SvgjsG1591" transform="matrix(1 0 0 1 122 -149.27188110351562)"></g><g id="SvgjsG1606" transform="matrix(1 0 0 1 70 -244)"></g><g id="SvgjsG1621" transform="matrix(1 0 0 1 70 -244)"></g><g id="SvgjsG1636" transform="matrix(1 0 0 1 70 -244)"></g><g id="SvgjsG1651" transform="matrix(1 0 0 1 70 -244)"></g><g id="SvgjsG1666" transform="matrix(1 0 0 1 70 -244)"></g><g id="SvgjsG1681" transform="matrix(1 0 0 1 70 -244)"></g><g id="SvgjsG1696" transform="matrix(1 0 0 1 70 -244)"></g><g id="SvgjsG1710" transform="matrix(1 0 0 1 70 -256)"></g><g id="SvgjsG1724" transform="matrix(1 0 0 1 70 -256)"></g><g id="SvgjsG1738" transform="matrix(1 0 0 1 70 -256)"></g><g id="SvgjsG1752" transform="matrix(1 0 0 1 70 -256)"></g><g id="SvgjsG1766" transform="matrix(1 0 0 1 70 -256)"></g><g id="SvgjsG1780" transform="matrix(1 0 0 1 70 -256)"></g><g id="SvgjsG1795" transform="matrix(1 0 0 1 70 -244)"></g><g id="SvgjsG1837" transform="matrix(1 0 0 1 122 -149.27188110351562)"></g><g id="SvgjsG1851" transform="matrix(1 0 0 1 70 -256)"></g><g id="SvgjsG1865" transform="matrix(1 0 0 1 70 -256)"></g><g id="SvgjsG1879" transform="matrix(1 0 0 1 70 -256)"></g><g id="SvgjsG1893" transform="matrix(1 0 0 1 70 -256)"></g><g id="SvgjsG1907" transform="matrix(1 0 0 1 70 -256)"></g><g id="SvgjsG1921" transform="matrix(1 0 0 1 70 -256)"></g><g id="SvgjsG1935" transform="matrix(1 0 0 1 70 -256)"></g><g id="SvgjsG1949" transform="matrix(1 0 0 1 70 -256)"></g><g id="SvgjsG1963" transform="matrix(1 0 0 1 70 -256)"></g><g id="SvgjsG1977" transform="matrix(1 0 0 1 70 -256)"></g><g id="SvgjsG1992" transform="matrix(1 0 0 1 70 -244)"></g><g id="SvgjsG2006" transform="matrix(1 0 0 1 70 -256)"></g><g id="SvgjsG2019" transform="matrix(1 0 0 1 70 -246.39999389648438)"></g><g id="SvgjsG2033" transform="matrix(1 0 0 1 70 -256)"></g><g id="SvgjsG2047" transform="matrix(1 0 0 1 70 -256)"></g><g id="SvgjsG2061" transform="matrix(1 0 0 1 70 -256)"></g><g id="SvgjsG2075" transform="matrix(1 0 0 1 70 -256)"></g><g id="SvgjsG2089" transform="matrix(1 0 0 1 70 -256)"></g><g id="SvgjsG2103" transform="matrix(1 0 0 1 70 -256)"></g><g id="SvgjsG2117" transform="matrix(1 0 0 1 70 -256)"></g><g id="SvgjsG2131" transform="matrix(1 0 0 1 70 -256)"></g><g id="SvgjsG2145" transform="matrix(1 0 0 1 70 -256)"></g><g id="SvgjsG2158" transform="matrix(1 0 0 1 70 -244)"></g><g id="SvgjsG2172" transform="matrix(1 0 0 1 70 -256)"></g><g id="SvgjsG2186" transform="matrix(1 0 0 1 70 -256)"></g><g id="SvgjsG2200" transform="matrix(1 0 0 1 70 -256)"></g><g id="SvgjsG2213" transform="matrix(1 0 0 1 70 -244)"></g><g id="SvgjsG2227" transform="matrix(1 0 0 1 70 -256)"></g><g id="SvgjsG2241" transform="matrix(1 0 0 1 70 -256)"></g><g id="SvgjsG2255" transform="matrix(1 0 0 1 70 -256)"></g><g id="SvgjsG2269" transform="matrix(1 0 0 1 70 -256)"></g><g id="SvgjsG2283" transform="matrix(1 0 0 1 70 -256)"></g><g id="SvgjsG2297" transform="matrix(1 0 0 1 70 -256)"></g><g id="SvgjsG2311" transform="matrix(1 0 0 1 70 -256)"></g><g id="SvgjsG2325" transform="matrix(1 0 0 1 70 -256)"></g><g id="SvgjsG2339" transform="matrix(1 0 0 1 70 -256)"></g><g id="SvgjsG2353" transform="matrix(1 0 0 1 70 -256)"></g><g id="SvgjsG2367" transform="matrix(1 0 0 1 70 -256)"></g><g id="SvgjsG2381" transform="matrix(1 0 0 1 70 -256)"></g><g id="SvgjsG2395" transform="matrix(1 0 0 1 70 -256)"></g><g id="SvgjsG2409" transform="matrix(1 0 0 1 70 -256)"></g><g id="SvgjsG2423" transform="matrix(1 0 0 1 70 -256)"></g><g id="SvgjsG2437" transform="matrix(1 0 0 1 70 -256)"></g><g id="SvgjsG2451" transform="matrix(1 0 0 1 70 -256)"></g><g id="SvgjsG2465" transform="matrix(1 0 0 1 70 -256)"></g><g id="SvgjsG2479" transform="matrix(1 0 0 1 70 -256)"></g><g id="SvgjsG2493" transform="matrix(1 0 0 1 70 -256)"></g><g id="SvgjsG2507" transform="matrix(1 0 0 1 70 -256)"></g><g id="SvgjsG2521" transform="matrix(1 0 0 1 70 -256)"></g><g id="SvgjsG2535" transform="matrix(1 0 0 1 70 -256)"></g><g id="SvgjsG2549" transform="matrix(1 0 0 1 70 -256)"></g><g id="SvgjsG2563" transform="matrix(1 0 0 1 70 -256)"></g><g id="SvgjsG2577" transform="matrix(1 0 0 1 70 -256)"></g><g id="SvgjsG2591" transform="matrix(1 0 0 1 70 -256)"></g><g id="SvgjsG2605" transform="matrix(1 0 0 1 70 -256)"></g><g id="SvgjsG2619" transform="matrix(1 0 0 1 70 -256)"></g><g id="SvgjsG2633" transform="matrix(1 0 0 1 70 -256)"></g><g id="SvgjsG2647" transform="matrix(1 0 0 1 70 -256)"></g><g id="SvgjsG2671" transform="matrix(1 0 0 1 70 -241.8092041015625)"></g><g id="SvgjsG2685" transform="matrix(1 0 0 1 70 -256)"></g><g id="SvgjsG2699" transform="matrix(1 0 0 1 70 -256)"></g><g id="SvgjsG2713" transform="matrix(1 0 0 1 70 -256)"></g><g id="SvgjsG2727" transform="matrix(1 0 0 1 70 -256)"></g><g id="SvgjsG2741" transform="matrix(1 0 0 1 70 -256)"></g><g id="SvgjsG2755" transform="matrix(1 0 0 1 70 -243.41766357421875)"></g><g id="SvgjsG2797" transform="matrix(1 0 0 1 122 -149.27188110351562)"></g><g id="SvgjsG2821" transform="matrix(1 0 0 1 70 -241.8092041015625)"></g><g id="SvgjsG2863" transform="matrix(1 0 0 1 16 16)"></g><g id="SvgjsG2887" transform="matrix(1 0 0 1 16 16)"></g><g id="SvgjsG2929" transform="matrix(1 0 0 1 122 -149.27188110351562)"></g><g id="SvgjsG2944" transform="matrix(1 0 0 1 70 -253.60000610351562)"><g id="SvgjsG2942" transform="translate(10 300)"><g id="SvgjsG2938"><line id="SvgjsLine2937" x1="-48" y1="0" x2="112" y2="0" stroke="black" stroke-width="2px"></line><g id="SvgjsG2936" data-original-title="" title=""><g id="SvgjsG2932" data-uri="/http://www.partsregistry.org/BBa_R0040" transform="matrix(1 0 0 1 0 -14.399999999999999)" data-toggle="tooltip" data-placement="top" title="Component
Description: pTet promoter
Role: http://identifiers.org/so/SO:0000417"><path id="SvgjsPath2930" d="M0 14.399999999999999L33 14.399999999999999 " stroke="black" stroke-width="10" stroke-dasharray="5, 5" fill="none"></path><path id="SvgjsPath2931" d="M33 0L48 14.399999999999999L33 28.799999999999997z " stroke="black" stroke-width="1" fill="black"></path></g><text id="SvgjsText2933" font-family="Helvetica, Arial, sans-serif" text-anchor="middle" transform="matrix(1 0 0 1 24 -30.4)"><tspan id="SvgjsTspan2934" dy="20.8" x="0"></tspan><tspan id="SvgjsTspan2935" alignment-baseline="middle"></tspan></text></g><text id="SvgjsText2939" font-family="Helvetica, Arial, sans-serif" text-anchor="left" transform="matrix(1 0 0 1 -100 -100)"><tspan id="SvgjsTspan2940" dy="20.8" x="0"></tspan><tspan id="SvgjsTspan2941" alignment-baseline="middle"></tspan></text></g><rect id="SvgjsRect2943" width="192" height="60.79999923706055" transform="matrix(1 0 0 1 -64 -30.399999618530273)" rx="8" ry="8" stroke="black" stroke-width="2px" stroke-linejoin="round" fill="none"></rect></g></g><defs id="SvgjsDefs1000"><marker id="SvgjsMarker1243" markerWidth="10" markerHeight="10" refX="5" refY="5" viewBox="0 0 10 10" orient="auto"><path id="SvgjsPath1244" d="M5 0L5 10z " stroke="black" fill="none"></path></marker><marker id="SvgjsMarker1416" markerWidth="10" markerHeight="10" refX="5" refY="5" viewBox="0 0 10 10" orient="auto"><path id="SvgjsPath1417" d="M4 0L10 5L4 10z " stroke="black" fill="black"></path></marker><marker id="SvgjsMarker1431" markerWidth="10" markerHeight="10" refX="5" refY="5" viewBox="0 0 10 10" orient="auto"><path id="SvgjsPath1432" d="M4 0L10 5L4 10z " stroke="black" fill="black"></path></marker><marker id="SvgjsMarker1446" markerWidth="10" markerHeight="10" refX="5" refY="5" viewBox="0 0 10 10" orient="auto"><path id="SvgjsPath1447" d="M4 0L10 5L4 10z " stroke="black" fill="black"></path></marker><marker id="SvgjsMarker1461" markerWidth="10" markerHeight="10" refX="5" refY="5" viewBox="0 0 10 10" orient="auto"><path id="SvgjsPath1462" d="M4 0L10 5L4 10z " stroke="black" fill="black"></path></marker><marker id="SvgjsMarker1476" markerWidth="10" markerHeight="10" refX="5" refY="5" viewBox="0 0 10 10" orient="auto"><path id="SvgjsPath1477" d="M4 0L10 5L4 10z " stroke="black" fill="black"></path></marker><marker id="SvgjsMarker1491" markerWidth="10" markerHeight="10" refX="5" refY="5" viewBox="0 0 10 10" orient="auto"><path id="SvgjsPath1492" d="M4 0L10 5L4 10z " stroke="black" fill="black"></path></marker><marker id="SvgjsMarker1506" markerWidth="10" markerHeight="10" refX="5" refY="5" viewBox="0 0 10 10" orient="auto"><path id="SvgjsPath1507" d="M4 0L10 5L4 10z " stroke="black" fill="black"></path></marker><marker id="SvgjsMarker1521" markerWidth="10" markerHeight="10" refX="5" refY="5" viewBox="0 0 10 10" orient="auto"><path id="SvgjsPath1522" d="M4 0L10 5L4 10z " stroke="black" fill="black"></path></marker><marker id="SvgjsMarker1536" markerWidth="10" markerHeight="10" refX="5" refY="5" viewBox="0 0 10 10" orient="auto"><path id="SvgjsPath1537" d="M4 0L10 5L4 10z " stroke="black" fill="black"></path></marker><marker id="SvgjsMarker1587" markerWidth="10" markerHeight="10" refX="5" refY="5" viewBox="0 0 10 10" orient="auto"><path id="SvgjsPath1588" d="M5 0L5 10z " stroke="black" fill="none"></path></marker><marker id="SvgjsMarker1593" markerWidth="10" markerHeight="10" refX="5" refY="5" viewBox="0 0 10 10" orient="auto"><path id="SvgjsPath1594" d="M4 0L10 5L4 10z " stroke="black" fill="black"></path></marker><marker id="SvgjsMarker1608" markerWidth="10" markerHeight="10" refX="5" refY="5" viewBox="0 0 10 10" orient="auto"><path id="SvgjsPath1609" d="M4 0L10 5L4 10z " stroke="black" fill="black"></path></marker><marker id="SvgjsMarker1623" markerWidth="10" markerHeight="10" refX="5" refY="5" viewBox="0 0 10 10" orient="auto"><path id="SvgjsPath1624" d="M4 0L10 5L4 10z " stroke="black" fill="black"></path></marker><marker id="SvgjsMarker1638" markerWidth="10" markerHeight="10" refX="5" refY="5" viewBox="0 0 10 10" orient="auto"><path id="SvgjsPath1639" d="M4 0L10 5L4 10z " stroke="black" fill="black"></path></marker><marker id="SvgjsMarker1653" markerWidth="10" markerHeight="10" refX="5" refY="5" viewBox="0 0 10 10" orient="auto"><path id="SvgjsPath1654" d="M4 0L10 5L4 10z " stroke="black" fill="black"></path></marker><marker id="SvgjsMarker1668" markerWidth="10" markerHeight="10" refX="5" refY="5" viewBox="0 0 10 10" orient="auto"><path id="SvgjsPath1669" d="M4 0L10 5L4 10z " stroke="black" fill="black"></path></marker><marker id="SvgjsMarker1683" markerWidth="10" markerHeight="10" refX="5" refY="5" viewBox="0 0 10 10" orient="auto"><path id="SvgjsPath1684" d="M4 0L10 5L4 10z " stroke="black" fill="black"></path></marker><marker id="SvgjsMarker1782" markerWidth="10" markerHeight="10" refX="5" refY="5" viewBox="0 0 10 10" orient="auto"><path id="SvgjsPath1783" d="M4 0L10 5L4 10z " stroke="black" fill="black"></path></marker><marker id="SvgjsMarker1833" markerWidth="10" markerHeight="10" refX="5" refY="5" viewBox="0 0 10 10" orient="auto"><path id="SvgjsPath1834" d="M5 0L5 10z " stroke="black" fill="none"></path></marker><marker id="SvgjsMarker1979" markerWidth="10" markerHeight="10" refX="5" refY="5" viewBox="0 0 10 10" orient="auto"><path id="SvgjsPath1980" d="M4 0L10 5L4 10z " stroke="black" fill="black"></path></marker><marker id="SvgjsMarker2793" markerWidth="10" markerHeight="10" refX="5" refY="5" viewBox="0 0 10 10" orient="auto"><path id="SvgjsPath2794" d="M5 0L5 10z " stroke="black" fill="none"></path></marker><marker id="SvgjsMarker2859" markerWidth="10" markerHeight="10" refX="5" refY="5" viewBox="0 0 10 10" orient="auto"><path id="SvgjsPath2860" d="M5 0L5 10z " stroke="black" fill="none"></path></marker><marker id="SvgjsMarker2925" markerWidth="10" markerHeight="10" refX="5" refY="5" viewBox="0 0 10 10" orient="auto"><path id="SvgjsPath2926" d="M5 0L5 10z " stroke="black" fill="none"></path></marker></defs>
                        
</svg>