<?xml version="1.0" encoding="UTF-8" standalone="no"?>
<svg
   xmlns:dc="http://purl.org/dc/elements/1.1/"
   xmlns:cc="http://creativecommons.org/ns#"
   xmlns:rdf="http://www.w3.org/1999/02/22-rdf-syntax-ns#"
   xmlns:svg="http://www.w3.org/2000/svg"
   xmlns="http://www.w3.org/2000/svg"
   xmlns:sodipodi="http://sodipodi.sourceforge.net/DTD/sodipodi-0.dtd"
   xmlns:inkscape="http://www.inkscape.org/namespaces/inkscape"
   version="1.1"
   x="0px"
   y="0px"
   width="0.5in"
   height="0.5in"
   viewBox="0 0 0 92.739532"
   xml:space="preserve"
   id="svg2"
   inkscape:version="0.91 r13725"
   sodipodi:docname="dsNA.svg"
   inkscape:export-filename="doublehelixB-specification.png"
   inkscape:export-xdpi="300"
   inkscape:export-ydpi="300"><metadata
     id="metadata187"><rdf:RDF><cc:Work
         rdf:about=""><dc:format>image/svg+xml</dc:format><dc:type
           rdf:resource="http://purl.org/dc/dcmitype/StillImage" /><dc:title>Untitled VisBOL Design</dc:title></cc:Work></rdf:RDF></metadata><sodipodi:namedview
     pagecolor="#ffffff"
     bordercolor="#666666"
     borderopacity="1"
     objecttolerance="10"
     gridtolerance="10"
     guidetolerance="10"
     inkscape:pageopacity="0"
     inkscape:pageshadow="2"
     inkscape:window-width="1028"
     inkscape:window-height="805"
     id="namedview185"
     showgrid="false"
     units="in"
     inkscape:zoom="11.071429"
     inkscape:cx="24.390746"
     inkscape:cy="26.203067"
     inkscape:window-x="9"
     inkscape:window-y="3"
     inkscape:window-maximized="0"
     inkscape:current-layer="svg2" /><title
     id="title4">Untitled VisBOL Design</title><desc
     id="desc6">Generated by the VisBOL design visualizer at http://visbol.org</desc><defs
     id="SvgjsDefs1000"><marker
       id="SvgjsMarker1243"
       markerWidth="10"
       markerHeight="10"
       refX="5"
       refY="5"
       viewBox="0 0 10 10"
       orient="auto"><path
         id="SvgjsPath1244"
         d="M 5,0 5,10 Z"
         inkscape:connector-curvature="0"
         style="fill:none;stroke:#000000" /></marker><marker
       id="SvgjsMarker1416"
       markerWidth="10"
       markerHeight="10"
       refX="5"
       refY="5"
       viewBox="0 0 10 10"
       orient="auto"><path
         id="SvgjsPath1417"
         d="m 4,0 6,5 -6,5 z"
         inkscape:connector-curvature="0"
         style="fill:#000000;stroke:#000000" /></marker><marker
       id="SvgjsMarker1431"
       markerWidth="10"
       markerHeight="10"
       refX="5"
       refY="5"
       viewBox="0 0 10 10"
       orient="auto"><path
         id="SvgjsPath1432"
         d="m 4,0 6,5 -6,5 z"
         inkscape:connector-curvature="0"
         style="fill:#000000;stroke:#000000" /></marker><marker
       id="SvgjsMarker1446"
       markerWidth="10"
       markerHeight="10"
       refX="5"
       refY="5"
       viewBox="0 0 10 10"
       orient="auto"><path
         id="SvgjsPath1447"
         d="m 4,0 6,5 -6,5 z"
         inkscape:connector-curvature="0"
         style="fill:#000000;stroke:#000000" /></marker><marker
       id="SvgjsMarker1461"
       markerWidth="10"
       markerHeight="10"
       refX="5"
       refY="5"
       viewBox="0 0 10 10"
       orient="auto"><path
         id="SvgjsPath1462"
         d="m 4,0 6,5 -6,5 z"
         inkscape:connector-curvature="0"
         style="fill:#000000;stroke:#000000" /></marker><marker
       id="SvgjsMarker1476"
       markerWidth="10"
       markerHeight="10"
       refX="5"
       refY="5"
       viewBox="0 0 10 10"
       orient="auto"><path
         id="SvgjsPath1477"
         d="m 4,0 6,5 -6,5 z"
         inkscape:connector-curvature="0"
         style="fill:#000000;stroke:#000000" /></marker><marker
       id="SvgjsMarker1491"
       markerWidth="10"
       markerHeight="10"
       refX="5"
       refY="5"
       viewBox="0 0 10 10"
       orient="auto"><path
         id="SvgjsPath1492"
         d="m 4,0 6,5 -6,5 z"
         inkscape:connector-curvature="0"
         style="fill:#000000;stroke:#000000" /></marker><marker
       id="SvgjsMarker1506"
       markerWidth="10"
       markerHeight="10"
       refX="5"
       refY="5"
       viewBox="0 0 10 10"
       orient="auto"><path
         id="SvgjsPath1507"
         d="m 4,0 6,5 -6,5 z"
         inkscape:connector-curvature="0"
         style="fill:#000000;stroke:#000000" /></marker><marker
       id="SvgjsMarker1521"
       markerWidth="10"
       markerHeight="10"
       refX="5"
       refY="5"
       viewBox="0 0 10 10"
       orient="auto"><path
         id="SvgjsPath1522"
         d="m 4,0 6,5 -6,5 z"
         inkscape:connector-curvature="0"
         style="fill:#000000;stroke:#000000" /></marker><marker
       id="SvgjsMarker1536"
       markerWidth="10"
       markerHeight="10"
       refX="5"
       refY="5"
       viewBox="0 0 10 10"
       orient="auto"><path
         id="SvgjsPath1537"
         d="m 4,0 6,5 -6,5 z"
         inkscape:connector-curvature="0"
         style="fill:#000000;stroke:#000000" /></marker><marker
       id="SvgjsMarker1587"
       markerWidth="10"
       markerHeight="10"
       refX="5"
       refY="5"
       viewBox="0 0 10 10"
       orient="auto"><path
         id="SvgjsPath1588"
         d="M 5,0 5,10 Z"
         inkscape:connector-curvature="0"
         style="fill:none;stroke:#000000" /></marker><marker
       id="SvgjsMarker1593"
       markerWidth="10"
       markerHeight="10"
       refX="5"
       refY="5"
       viewBox="0 0 10 10"
       orient="auto"><path
         id="SvgjsPath1594"
         d="m 4,0 6,5 -6,5 z"
         inkscape:connector-curvature="0"
         style="fill:#000000;stroke:#000000" /></marker><marker
       id="SvgjsMarker1608"
       markerWidth="10"
       markerHeight="10"
       refX="5"
       refY="5"
       viewBox="0 0 10 10"
       orient="auto"><path
         id="SvgjsPath1609"
         d="m 4,0 6,5 -6,5 z"
         inkscape:connector-curvature="0"
         style="fill:#000000;stroke:#000000" /></marker><marker
       id="SvgjsMarker1623"
       markerWidth="10"
       markerHeight="10"
       refX="5"
       refY="5"
       viewBox="0 0 10 10"
       orient="auto"><path
         id="SvgjsPath1624"
         d="m 4,0 6,5 -6,5 z"
         inkscape:connector-curvature="0"
         style="fill:#000000;stroke:#000000" /></marker><marker
       id="SvgjsMarker1638"
       markerWidth="10"
       markerHeight="10"
       refX="5"
       refY="5"
       viewBox="0 0 10 10"
       orient="auto"><path
         id="SvgjsPath1639"
         d="m 4,0 6,5 -6,5 z"
         inkscape:connector-curvature="0"
         style="fill:#000000;stroke:#000000" /></marker><marker
       id="SvgjsMarker1653"
       markerWidth="10"
       markerHeight="10"
       refX="5"
       refY="5"
       viewBox="0 0 10 10"
       orient="auto"><path
         id="SvgjsPath1654"
         d="m 4,0 6,5 -6,5 z"
         inkscape:connector-curvature="0"
         style="fill:#000000;stroke:#000000" /></marker><marker
       id="SvgjsMarker1668"
       markerWidth="10"
       markerHeight="10"
       refX="5"
       refY="5"
       viewBox="0 0 10 10"
       orient="auto"><path
         id="SvgjsPath1669"
         d="m 4,0 6,5 -6,5 z"
         inkscape:connector-curvature="0"
         style="fill:#000000;stroke:#000000" /></marker><marker
       id="SvgjsMarker1683"
       markerWidth="10"
       markerHeight="10"
       refX="5"
       refY="5"
       viewBox="0 0 10 10"
       orient="auto"><path
         id="SvgjsPath1684"
         d="m 4,0 6,5 -6,5 z"
         inkscape:connector-curvature="0"
         style="fill:#000000;stroke:#000000" /></marker><marker
       id="SvgjsMarker1782"
       markerWidth="10"
       markerHeight="10"
       refX="5"
       refY="5"
       viewBox="0 0 10 10"
       orient="auto"><path
         id="SvgjsPath1783"
         d="m 4,0 6,5 -6,5 z"
         inkscape:connector-curvature="0"
         style="fill:#000000;stroke:#000000" /></marker><marker
       id="SvgjsMarker1833"
       markerWidth="10"
       markerHeight="10"
       refX="5"
       refY="5"
       viewBox="0 0 10 10"
       orient="auto"><path
         id="SvgjsPath1834"
         d="M 5,0 5,10 Z"
         inkscape:connector-curvature="0"
         style="fill:none;stroke:#000000" /></marker><marker
       id="SvgjsMarker1979"
       markerWidth="10"
       markerHeight="10"
       refX="5"
       refY="5"
       viewBox="0 0 10 10"
       orient="auto"><path
         id="SvgjsPath1980"
         d="m 4,0 6,5 -6,5 z"
         inkscape:connector-curvature="0"
         style="fill:#000000;stroke:#000000" /></marker><marker
       id="SvgjsMarker2793"
       markerWidth="10"
       markerHeight="10"
       refX="5"
       refY="5"
       viewBox="0 0 10 10"
       orient="auto"><path
         id="SvgjsPath2794"
         d="M 5,0 5,10 Z"
         inkscape:connector-curvature="0"
         style="fill:none;stroke:#000000" /></marker></defs><g
     id="SvgjsG1005"
     transform="matrix(0.69710032,0,0,0.69710032,11.138437,-15.289783)" /><g
     id="SvgjsG1006"
     transform="matrix(0.69710032,0,0,0.69710032,11.138437,-15.289783)" /><g
     id="SvgjsG1009"
     transform="matrix(0.69710032,0,0,0.69710032,15.321039,-213.26627)" /><g
     id="SvgjsG1205"
     transform="matrix(0.69710032,0,0,0.69710032,15.321039,-213.27716)" /><g
     id="SvgjsG1247"
     transform="matrix(0.69710032,0,0,0.69710032,85.031071,-130.50086)" /><g
     id="SvgjsG1260"
     transform="matrix(0.69710032,0,0,0.69710032,85.031071,-137.7507)" /><g
     id="SvgjsG1274"
     transform="matrix(0.69710032,0,0,0.69710032,85.031071,-137.7507)" /><g
     id="SvgjsG1288"
     transform="matrix(0.69710032,0,0,0.69710032,85.031071,-137.7507)" /><g
     id="SvgjsG1302"
     transform="matrix(0.69710032,0,0,0.69710032,85.031071,-137.7507)" /><g
     id="SvgjsG1316"
     transform="matrix(0.69710032,0,0,0.69710032,85.031071,-137.7507)" /><g
     id="SvgjsG1330"
     transform="matrix(0.69710032,0,0,0.69710032,85.031071,-137.7507)" /><g
     id="SvgjsG1344"
     transform="matrix(0.69710032,0,0,0.69710032,85.031071,-137.7507)" /><g
     id="SvgjsG1358"
     transform="matrix(0.69710032,0,0,0.69710032,85.031071,-137.7507)" /><g
     id="SvgjsG1372"
     transform="matrix(0.69710032,0,0,0.69710032,85.031071,-137.7507)" /><g
     id="SvgjsG1386"
     transform="matrix(0.69710032,0,0,0.69710032,85.031071,-137.7507)" /><g
     id="SvgjsG1400"
     transform="matrix(0.69710032,0,0,0.69710032,85.031071,-137.7507)" /><g
     id="SvgjsG1414"
     transform="matrix(0.69710032,0,0,0.69710032,85.031071,-137.7507)" /><g
     id="SvgjsG1429"
     transform="matrix(0.69710032,0,0,0.69710032,85.031071,-137.7507)" /><g
     id="SvgjsG1444"
     transform="matrix(0.69710032,0,0,0.69710032,85.031071,-137.7507)" /><g
     id="SvgjsG1459"
     transform="matrix(0.69710032,0,0,0.69710032,48.781854,-196.53586)" /><g
     id="SvgjsG1474"
     transform="matrix(0.69710032,0,0,0.69710032,48.781854,-196.53586)" /><g
     id="SvgjsG1489"
     transform="matrix(0.69710032,0,0,0.69710032,48.781854,-196.53586)" /><g
     id="SvgjsG1504"
     transform="matrix(0.69710032,0,0,0.69710032,48.781854,-196.53586)" /><g
     id="SvgjsG1519"
     transform="matrix(0.69710032,0,0,0.69710032,48.781854,-196.53586)" /><g
     id="SvgjsG1534"
     transform="matrix(0.69710032,0,0,0.69710032,48.781854,-196.53586)" /><g
     id="SvgjsG1549"
     transform="matrix(0.69710032,0,0,0.69710032,48.781854,-196.53586)" /><g
     id="SvgjsG1591"
     transform="matrix(0.69710032,0,0,0.69710032,85.031071,-130.50086)" /><g
     id="SvgjsG1606"
     transform="matrix(0.69710032,0,0,0.69710032,48.781854,-196.53586)" /><g
     id="SvgjsG1621"
     transform="matrix(0.69710032,0,0,0.69710032,48.781854,-196.53586)" /><g
     id="SvgjsG1636"
     transform="matrix(0.69710032,0,0,0.69710032,48.781854,-196.53586)" /><g
     id="SvgjsG1651"
     transform="matrix(0.69710032,0,0,0.69710032,48.781854,-196.53586)" /><g
     id="SvgjsG1666"
     transform="matrix(0.69710032,0,0,0.69710032,48.781854,-196.53586)" /><g
     id="SvgjsG1681"
     transform="matrix(0.69710032,0,0,0.69710032,48.781854,-196.53586)" /><g
     id="SvgjsG1696"
     transform="matrix(0.69710032,0,0,0.69710032,48.781854,-196.53586)" /><g
     id="SvgjsG1710"
     transform="matrix(0.69710032,0,0,0.69710032,48.781854,-204.90107)" /><g
     id="SvgjsG1724"
     transform="matrix(0.69710032,0,0,0.69710032,48.781854,-204.90107)" /><g
     id="SvgjsG1738"
     transform="matrix(0.69710032,0,0,0.69710032,48.781854,-204.90107)" /><g
     id="SvgjsG1752"
     transform="matrix(0.69710032,0,0,0.69710032,48.781854,-204.90107)" /><g
     id="SvgjsG1766"
     transform="matrix(0.69710032,0,0,0.69710032,48.781854,-204.90107)" /><g
     id="SvgjsG1780"
     transform="matrix(0.69710032,0,0,0.69710032,48.781854,-204.90107)" /><g
     id="SvgjsG1795"
     transform="matrix(0.69710032,0,0,0.69710032,48.781854,-196.53586)" /><g
     id="SvgjsG1837"
     transform="matrix(0.69710032,0,0,0.69710032,85.031071,-130.50086)" /><g
     id="SvgjsG1851"
     transform="matrix(0.69710032,0,0,0.69710032,48.781854,-204.90107)" /><g
     id="SvgjsG1865"
     transform="matrix(0.69710032,0,0,0.69710032,48.781854,-204.90107)" /><g
     id="SvgjsG1879"
     transform="matrix(0.69710032,0,0,0.69710032,48.781854,-204.90107)" /><g
     id="SvgjsG1893"
     transform="matrix(0.69710032,0,0,0.69710032,48.781854,-204.90107)" /><g
     id="SvgjsG1907"
     transform="matrix(0.69710032,0,0,0.69710032,48.781854,-204.90107)" /><g
     id="SvgjsG1921"
     transform="matrix(0.69710032,0,0,0.69710032,48.781854,-204.90107)" /><g
     id="SvgjsG1935"
     transform="matrix(0.69710032,0,0,0.69710032,48.781854,-204.90107)" /><g
     id="SvgjsG1949"
     transform="matrix(0.69710032,0,0,0.69710032,48.781854,-204.90107)" /><g
     id="SvgjsG1963"
     transform="matrix(0.69710032,0,0,0.69710032,48.781854,-204.90107)" /><g
     id="SvgjsG1977"
     transform="matrix(0.69710032,0,0,0.69710032,48.781854,-204.90107)" /><g
     id="SvgjsG1992"
     transform="matrix(0.69710032,0,0,0.69710032,48.781854,-196.53586)" /><g
     id="SvgjsG2006"
     transform="matrix(0.69710032,0,0,0.69710032,48.781854,-204.90107)" /><g
     id="SvgjsG2019"
     transform="matrix(0.69710032,0,0,0.69710032,48.781854,-198.2089)" /><g
     id="SvgjsG2033"
     transform="matrix(0.69710032,0,0,0.69710032,48.781854,-204.90107)" /><g
     id="SvgjsG2047"
     transform="matrix(0.69710032,0,0,0.69710032,48.781854,-204.90107)" /><g
     id="SvgjsG2061"
     transform="matrix(0.69710032,0,0,0.69710032,48.781854,-204.90107)" /><g
     id="SvgjsG2075"
     transform="matrix(0.69710032,0,0,0.69710032,48.781854,-204.90107)" /><g
     id="SvgjsG2089"
     transform="matrix(0.69710032,0,0,0.69710032,48.781854,-204.90107)" /><g
     id="SvgjsG2103"
     transform="matrix(0.69710032,0,0,0.69710032,48.781854,-204.90107)" /><g
     id="SvgjsG2117"
     transform="matrix(0.69710032,0,0,0.69710032,48.781854,-204.90107)" /><g
     id="SvgjsG2131"
     transform="matrix(0.69710032,0,0,0.69710032,48.781854,-204.90107)" /><g
     id="SvgjsG2145"
     transform="matrix(0.69710032,0,0,0.69710032,48.781854,-204.90107)" /><g
     id="SvgjsG2158"
     transform="matrix(0.69710032,0,0,0.69710032,48.781854,-196.53586)" /><g
     id="SvgjsG2172"
     transform="matrix(0.69710032,0,0,0.69710032,48.781854,-204.90107)" /><g
     id="SvgjsG2186"
     transform="matrix(0.69710032,0,0,0.69710032,48.781854,-204.90107)" /><g
     id="SvgjsG2200"
     transform="matrix(0.69710032,0,0,0.69710032,48.781854,-204.90107)" /><g
     id="SvgjsG2213"
     transform="matrix(0.69710032,0,0,0.69710032,48.781854,-196.53586)" /><g
     id="SvgjsG2227"
     transform="matrix(0.69710032,0,0,0.69710032,48.781854,-204.90107)" /><g
     id="SvgjsG2241"
     transform="matrix(0.69710032,0,0,0.69710032,48.781854,-204.90107)" /><g
     id="SvgjsG2255"
     transform="matrix(0.69710032,0,0,0.69710032,48.781854,-204.90107)" /><g
     id="SvgjsG2269"
     transform="matrix(0.69710032,0,0,0.69710032,48.781854,-204.90107)" /><g
     id="SvgjsG2283"
     transform="matrix(0.69710032,0,0,0.69710032,48.781854,-204.90107)" /><g
     id="SvgjsG2297"
     transform="matrix(0.69710032,0,0,0.69710032,48.781854,-204.90107)" /><g
     id="SvgjsG2311"
     transform="matrix(0.69710032,0,0,0.69710032,48.781854,-204.90107)" /><g
     id="SvgjsG2325"
     transform="matrix(0.69710032,0,0,0.69710032,48.781854,-204.90107)" /><g
     id="SvgjsG2339"
     transform="matrix(0.69710032,0,0,0.69710032,48.781854,-204.90107)" /><g
     id="SvgjsG2353"
     transform="matrix(0.69710032,0,0,0.69710032,48.781854,-204.90107)" /><g
     id="SvgjsG2367"
     transform="matrix(0.69710032,0,0,0.69710032,48.781854,-204.90107)" /><g
     id="SvgjsG2381"
     transform="matrix(0.69710032,0,0,0.69710032,48.781854,-204.90107)" /><g
     id="SvgjsG2395"
     transform="matrix(0.69710032,0,0,0.69710032,48.781854,-204.90107)" /><g
     id="SvgjsG2409"
     transform="matrix(0.69710032,0,0,0.69710032,48.781854,-204.90107)" /><g
     id="SvgjsG2423"
     transform="matrix(0.69710032,0,0,0.69710032,48.781854,-204.90107)" /><g
     id="SvgjsG2437"
     transform="matrix(0.69710032,0,0,0.69710032,48.781854,-204.90107)" /><g
     id="SvgjsG2451"
     transform="matrix(0.69710032,0,0,0.69710032,48.781854,-204.90107)" /><g
     id="SvgjsG2465"
     transform="matrix(0.69710032,0,0,0.69710032,48.781854,-204.90107)" /><g
     id="SvgjsG2479"
     transform="matrix(0.69710032,0,0,0.69710032,48.781854,-204.90107)" /><g
     id="SvgjsG2493"
     transform="matrix(0.69710032,0,0,0.69710032,48.781854,-204.90107)" /><g
     id="SvgjsG2507"
     transform="matrix(0.69710032,0,0,0.69710032,48.781854,-204.90107)" /><g
     id="SvgjsG2521"
     transform="matrix(0.69710032,0,0,0.69710032,48.781854,-204.90107)" /><g
     id="SvgjsG2535"
     transform="matrix(0.69710032,0,0,0.69710032,48.781854,-204.90107)" /><g
     id="SvgjsG2549"
     transform="matrix(0.69710032,0,0,0.69710032,48.781854,-204.90107)" /><g
     id="SvgjsG2563"
     transform="matrix(0.69710032,0,0,0.69710032,48.781854,-204.90107)" /><g
     id="SvgjsG2577"
     transform="matrix(0.69710032,0,0,0.69710032,48.781854,-204.90107)" /><g
     id="SvgjsG2591"
     transform="matrix(0.69710032,0,0,0.69710032,48.781854,-204.90107)" /><g
     id="SvgjsG2605"
     transform="matrix(0.69710032,0,0,0.69710032,48.781854,-204.90107)" /><g
     id="SvgjsG2619"
     transform="matrix(0.69710032,0,0,0.69710032,48.781854,-204.90107)" /><g
     id="SvgjsG2633"
     transform="matrix(0.69710032,0,0,0.69710032,48.781854,-204.90107)" /><g
     id="SvgjsG2647"
     transform="matrix(0.69710032,0,0,0.69710032,48.781854,-204.90107)" /><g
     id="SvgjsG2671"
     transform="matrix(0.69710032,0,0,0.69710032,48.781854,-195.00865)" /><g
     id="SvgjsG2685"
     transform="matrix(0.69710032,0,0,0.69710032,48.781854,-204.90107)" /><g
     id="SvgjsG2699"
     transform="matrix(0.69710032,0,0,0.69710032,48.781854,-204.90107)" /><g
     id="SvgjsG2713"
     transform="matrix(0.69710032,0,0,0.69710032,48.781854,-204.90107)" /><g
     id="SvgjsG2727"
     transform="matrix(0.69710032,0,0,0.69710032,48.781854,-204.90107)" /><g
     id="SvgjsG2741"
     transform="matrix(0.69710032,0,0,0.69710032,48.781854,-204.90107)" /><g
     id="SvgjsG2755"
     transform="matrix(0.69710032,0,0,0.69710032,48.781854,-196.12991)" /><g
     id="SvgjsG2797"
     transform="matrix(0.69710032,0,0,0.69710032,85.031071,-130.50086)" /><path
     style="fill:none;stroke:#000000;stroke-width:1.66639447;stroke-linecap:round;stroke-miterlimit:10"
     inkscape:connector-curvature="0"
     stroke-miterlimit="10"
     d="m 3.2704672,17.307348 c 5.6582439,1.950843 7.1098348,12.983646 13.8575948,10.614295 5.325793,-1.871754 6.35277,-8.992987 11.73452,-10.805424"
     id="SvgjsPath2807" /><path
     style="fill:none;stroke:#000000;stroke-width:1.66639447;stroke-linecap:round;stroke-miterlimit:10"
     inkscape:connector-curvature="0"
     stroke-miterlimit="10"
     d="M 28.102224,28.079819 C 22.496647,26.491465 22.17407,18.612303 17.151104,17.023949 10.577798,14.944588 8.3526825,27.397684 2.477194,28.234701"
     id="SvgjsPath2808" /><text
     id="SvgjsText2810"
     transform="scale(1.0402301,0.96132576)"
     style="font-size:6.66557741px;font-family:Helvetica, Arial, sans-serif;text-anchor:middle;stroke:#000000;stroke-width:0.5554648"
     x="15.063868"
     y="-5.4558725"><tspan
       style="stroke:#000000;stroke-width:0.5554648"
       id="SvgjsTspan2811"
       dy="11.553667"
       x="15.063868" /><tspan
       style="stroke:#000000;stroke-width:0.5554648"
       id="SvgjsTspan2812"
       alignment-baseline="middle" /></text>
<text
     style="font-size:8.36520386px;font-family:Helvetica, Arial, sans-serif"
     text-anchor="left"
     id="SvgjsText2816"
     x="-13.957174"
     y="-55.588593"><tspan
       x="-13.957174"
       dy="14.499686"
       id="SvgjsTspan2817" /><tspan
       alignment-baseline="middle"
       id="SvgjsTspan2818" /></text>
<path
     id="path5154"
     d="m 17.023582,17.055493 c 5.658244,1.950842 7.109835,12.983645 13.857595,10.614295 5.325793,-1.871754 6.352769,-8.992987 11.73452,-10.805425"
     stroke-miterlimit="10"
     inkscape:connector-curvature="0"
     style="fill:none;stroke:#000000;stroke-width:1.66639447;stroke-linecap:round;stroke-miterlimit:10" /><path
     id="path5156"
     d="M 42.422014,28.142784 C 36.816437,26.554429 36.493861,18.675268 31.470894,17.086913 24.897588,15.007552 22.672473,27.460648 16.796984,28.297665"
     stroke-miterlimit="10"
     inkscape:connector-curvature="0"
     style="fill:none;stroke:#000000;stroke-width:1.66639447;stroke-linecap:round;stroke-miterlimit:10" /></svg>