<?xml version="1.0" encoding="UTF-8" standalone="no"?>
<svg
   xmlns:dc="http://purl.org/dc/elements/1.1/"
   xmlns:cc="http://creativecommons.org/ns#"
   xmlns:rdf="http://www.w3.org/1999/02/22-rdf-syntax-ns#"
   xmlns:svg="http://www.w3.org/2000/svg"
   xmlns="http://www.w3.org/2000/svg"
   xmlns:sodipodi="http://sodipodi.sourceforge.net/DTD/sodipodi-0.dtd"
   xmlns:inkscape="http://www.inkscape.org/namespaces/inkscape"
   viewBox="0 0 44.999998 44.999998"
   version="1.1"
   xml:space="preserve"
   x="0px"
   y="0px"
   width="0.5in"
   height="0.5in"
   id="svg2"
   inkscape:version="0.91 r13725"
   sodipodi:docname="complex-pp-specification.svg"
   inkscape:export-filename="complex-pp-specification.png"
   inkscape:export-xdpi="300"
   inkscape:export-ydpi="300"><metadata
     id="metadata12"><rdf:RDF><cc:Work
         rdf:about=""><dc:format>image/svg+xml</dc:format><dc:type
           rdf:resource="http://purl.org/dc/dcmitype/StillImage" /><dc:title></dc:title></cc:Work></rdf:RDF></metadata><sodipodi:namedview
     pagecolor="#ffffff"
     bordercolor="#666666"
     borderopacity="1"
     objecttolerance="10"
     gridtolerance="10"
     guidetolerance="10"
     inkscape:pageopacity="0"
     inkscape:pageshadow="2"
     inkscape:window-width="944"
     inkscape:window-height="738"
     id="namedview10"
     showgrid="false"
     units="in"
     inkscape:zoom="13.350176"
     inkscape:cx="22.603028"
     inkscape:cy="27.618455"
     inkscape:window-x="0"
     inkscape:window-y="0"
     inkscape:window-maximized="0"
     inkscape:current-layer="svg2" /><defs
     id="defs4"><style
       type="text/css"
       id="style6"><![CDATA[
      path,circle,polygon {
        stroke:#000000;
        stroke-width: 3;
        stroke-linecap: round;
        stroke-linejoin: round;
        fill: none
      }]]></style></defs><path
     inkscape:connector-curvature="0"
     id="path4326"
     d="m 29.899908,11.722931 a 9.5129835,9.5129835 0 0 0 -9.513671,9.513672 9.5129835,9.5129835 0 0 0 1.5625,5.210937 3.5205528,3.5205528 0 0 0 -2.384766,3.328126 3.5205528,3.5205528 0 0 0 3.519531,3.519531 3.5205528,3.5205528 0 0 0 3.501953,-3.154297 9.5129835,9.5129835 0 0 0 3.314453,0.607422 9.5129835,9.5129835 0 0 0 9.513672,-9.511719 9.5129835,9.5129835 0 0 0 -9.513672,-9.513672 z"
     style="opacity:1;fill:#999999;fill-opacity:1;stroke:#000000;stroke-width:1;stroke-linecap:butt;stroke-linejoin:miter;stroke-miterlimit:4;stroke-dasharray:none;stroke-dashoffset:0;stroke-opacity:1" /><rect
     style="opacity:0.5;fill:none;fill-opacity:1;stroke:#999999;stroke-width:0.49999994;stroke-miterlimit:4;stroke-dasharray:0.99999988, 0.49999994;stroke-dashoffset:0;stroke-opacity:1"
     id="rect4159"
     width="35.055069"
     height="22.470968"
     x="4.9724627"
     y="11.264513" /><path
     style="opacity:1;fill:#999999;fill-opacity:1;stroke:#000000;stroke-width:1;stroke-linecap:butt;stroke-linejoin:miter;stroke-miterlimit:4;stroke-dasharray:none;stroke-dashoffset:0;stroke-opacity:1"
     d="m 15.899908,11.722931 a 9.5129835,9.5129835 0 0 0 -9.5136703,9.513672 9.5129835,9.5129835 0 0 0 1.5624998,5.210937 3.5205528,3.5205528 0 0 0 -2.3847658,3.328126 3.5205528,3.5205528 0 0 0 3.5195306,3.519531 3.5205528,3.5205528 0 0 0 3.5019527,-3.154297 9.5129835,9.5129835 0 0 0 3.314453,0.607422 9.5129835,9.5129835 0 0 0 9.513672,-9.511719 9.5129835,9.5129835 0 0 0 -9.513672,-9.513672 z"
     id="path4135"
     inkscape:connector-curvature="0" /></svg>