<?xml version="1.0" encoding="utf-8"?>
<!-- Generator: Adobe Illustrator 21.0.2, SVG Export Plug-In . SVG Version: 6.00 Build 0)  -->
<svg version="1.1" id="Layer_1" xmlns="http://www.w3.org/2000/svg" xmlns:xlink="http://www.w3.org/1999/xlink" x="0px" y="0px"
	 viewBox="0 0 126.2 73.4" style="enable-background:new 0 0 126.2 73.4;" xml:space="preserve">
<style type="text/css">
	.st0{fill:#FFFFFF;stroke:#000000;}
	.st1{fill:none;}
</style>
<g transform="matrix(1,0,0,1,-69,-161)">
	<g>
		<g transform="matrix(1,0,0,1,240,241)">
		</g>
		<g transform="matrix(1,0,0,1,240,305)">
		</g>
		<g transform="matrix(1,0,0,1,240,241)">
			<g>
				<g>
					<g>
						<path class="st0" d="M-143.1-78.5h70.4c35.2,0,35.2,70.4,0,70.4h-70.4C-178.3-8.1-178.3-78.5-143.1-78.5"/>
					</g>
					<rect x="-143.1" y="-78.5" pointer-events="visible" class="st1" width="70.4" height="70.4"/>
				</g>
			</g>
		</g>
	</g>
</g>
<title>Exported Protein Design</title>
<g transform="matrix(1,0,0,1,-69,-161)">
	<g>
		<g transform="matrix(1,0,0,1,240,241)">
		</g>
		<g transform="matrix(1,0,0,1,240,305)">
		</g>
		<g transform="matrix(1,0,0,1,240,241)">
			<g>
				<g>
					<g>
						<path class="st0" d="M-136.7-72.1h57.6c28.8,0,28.8,57.6,0,57.6h-57.6C-165.5-14.5-165.5-72.1-136.7-72.1"/>
					</g>
					<rect x="-136.7" y="-72.1" pointer-events="visible" class="st1" width="57.6" height="57.6"/>
				</g>
			</g>
		</g>
	</g>
</g>
</svg>
