<svg xmlns="http://www.w3.org/2000/svg" xmlns:dc="http://purl.org/dc/elements/1.1/" xmlns:ns2="http://creativecommons.org/ns#" xmlns:ns4="http://sodipodi.sourceforge.net/DTD/sodipodi-0.dtd" xmlns:ns5="http://www.inkscape.org/namespaces/inkscape" xmlns:rdf="http://www.w3.org/1999/02/22-rdf-syntax-ns#" width="300" height="260"><rect x="0" y="0" width="300" height="260" stroke="none" fill="white" /><text font-size="30" text-anchor="middle" x="150.0" y="30">Deprecated</text><g transform="translate(10, 40)" id="insulator"><rect x="0" y="0" width="170" height="100" stroke="black" fill="white" rx="10" ry="10" /><g transform="translate(60, 20)"><metadata id="metadata14"><rdf:RDF><ns2:Work rdf:about=""><dc:format>image/svg+xml</dc:format><dc:type rdf:resource="http://purl.org/dc/dcmitype/StillImage" /><dc:title /></ns2:Work></rdf:RDF></metadata><ns4:namedview pagecolor="#ffffff" bordercolor="#666666" borderopacity="1" objecttolerance="10" gridtolerance="10" guidetolerance="10" ns5:pageopacity="0" ns5:pageshadow="2" ns5:window-width="640" ns5:window-height="480" id="namedview12" showgrid="false" units="in" ns5:zoom="2.36" ns5:cx="25" ns5:cy="50" ns5:window-x="0" ns5:window-y="0" ns5:window-maximized="0" ns5:current-layer="svg2" /><defs id="defs4"><style type="text/css" id="style6">
      path,circle {
        stroke:#000000;
        stroke-width: 3;
        stroke-linecap: round;
        stroke-linejoin: round;
        fill: none
      }</style></defs><path d="m 14.499997,30.499997 16,0 0,-16 -16,0 0,16 z" id="path8" ns5:connector-curvature="0" style="fill:none;stroke:#000000;stroke-width:3;stroke-linecap:round;stroke-linejoin:round" /><path d="m 7.4999973,37.499997 29.9999997,0 0,-29.9999998 -29.9999997,0 0,29.9999998 z" id="path10" ns5:connector-curvature="0" style="fill:none;stroke:#000000;stroke-width:3;stroke-linecap:round;stroke-linejoin:round" /></g><text font-size="8pt" y="85.0" text-anchor="middle" x="85.0">Insulator</text></g><g transform="translate(10, 150)" id="macromolecule"><rect x="0" y="0" width="170" height="100" stroke="black" fill="white" rx="10" ry="10" /><g transform="translate(60, 20)"><metadata id="metadata12"><rdf:RDF><ns2:Work rdf:about=""><dc:format>image/svg+xml</dc:format><dc:type rdf:resource="http://purl.org/dc/dcmitype/StillImage" /><dc:title /></ns2:Work></rdf:RDF></metadata><ns4:namedview pagecolor="#ffffff" bordercolor="#666666" borderopacity="1" objecttolerance="10" gridtolerance="10" guidetolerance="10" ns5:pageopacity="0" ns5:pageshadow="2" ns5:window-width="944" ns5:window-height="738" id="namedview10" showgrid="false" units="in" ns5:zoom="13.350176" ns5:cx="22.603028" ns5:cy="27.618455" ns5:window-x="0" ns5:window-y="0" ns5:window-maximized="0" ns5:current-layer="svg2" /><defs id="defs4"><style type="text/css" id="style6">
      path,circle,polygon {
        stroke:#000000;
        stroke-width: 3;
        stroke-linecap: round;
        stroke-linejoin: round;
        fill: none
      }</style></defs><path style="opacity:1;fill:none;fill-opacity:1;stroke:#000000;stroke-width:1;stroke-linecap:butt;stroke-linejoin:miter;stroke-miterlimit:4;stroke-dasharray:none;stroke-dashoffset:0;stroke-opacity:1" d="m 22.91113,11.713864 a 9.5129835,9.5129835 0 0 0 -9.513671,9.513672 9.5129835,9.5129835 0 0 0 1.5625,5.210937 3.5205528,3.5205528 0 0 0 -2.384766,3.328126 3.5205528,3.5205528 0 0 0 3.519531,3.519531 3.5205528,3.5205528 0 0 0 3.501953,-3.154297 9.5129835,9.5129835 0 0 0 3.314453,0.607422 9.5129835,9.5129835 0 0 0 9.513672,-9.511719 9.5129835,9.5129835 0 0 0 -9.513672,-9.513672 z" id="path4135" ns5:connector-curvature="0" /></g><text font-size="8pt" y="85.0" text-anchor="middle" x="85.0">Macromolecule</text></g></svg>