<svg xmlns="http://www.w3.org/2000/svg" xmlns:dc="http://purl.org/dc/elements/1.1/" xmlns:ns2="http://creativecommons.org/ns#" xmlns:ns4="http://sodipodi.sourceforge.net/DTD/sodipodi-0.dtd" xmlns:ns5="http://www.inkscape.org/namespaces/inkscape" xmlns:rdf="http://www.w3.org/1999/02/22-rdf-syntax-ns#" width="550" height="590"><rect x="0" y="0" width="550" height="590" stroke="none" fill="white" /><text font-size="30" text-anchor="middle" x="275.0" y="30">Molecular Species</text><g transform="translate(10, 40)" id="complex"><rect x="0" y="0" width="170" height="100" stroke="black" fill="white" rx="10" ry="10" /><g transform="translate(60, 20)"><metadata id="metadata12"><rdf:RDF><ns2:Work rdf:about=""><dc:format>image/svg+xml</dc:format><dc:type rdf:resource="http://purl.org/dc/dcmitype/StillImage" /><dc:title /></ns2:Work></rdf:RDF></metadata><ns4:namedview pagecolor="#ffffff" bordercolor="#666666" borderopacity="1" objecttolerance="10" gridtolerance="10" guidetolerance="10" ns5:pageopacity="0" ns5:pageshadow="2" ns5:window-width="944" ns5:window-height="738" id="namedview10" showgrid="false" units="in" ns5:zoom="13.350176" ns5:cx="22.603028" ns5:cy="27.618455" ns5:window-x="0" ns5:window-y="0" ns5:window-maximized="0" ns5:current-layer="svg2" /><defs id="defs4"><style type="text/css" id="style6">
      path,circle,polygon {
        stroke:#000000;
        stroke-width: 3;
        stroke-linecap: round;
        stroke-linejoin: round;
        fill: none
      }</style></defs><path style="opacity:1;fill:none;fill-opacity:1;stroke:#000000;stroke-width:0.99999988;stroke-linecap:butt;stroke-linejoin:miter;stroke-miterlimit:4;stroke-dasharray:none;stroke-dashoffset:0;stroke-opacity:1" d="M 10.134766 15.570312 L 6.6191406 19.085938 L 6.6191406 25.914062 L 10.134766 29.429688 L 34.865234 29.429688 L 38.380859 25.914062 L 38.380859 19.085938 L 34.865234 15.570312 L 10.134766 15.570312 z " id="rect4135" /></g><text font-size="12" y="85.0" text-anchor="middle" x="85.0">Complex</text></g><g transform="translate(190, 40)" id="dsNA"><rect x="0" y="0" width="170" height="100" stroke="black" fill="white" rx="10" ry="10" /><g transform="translate(60, 20)"><metadata id="metadata12"><rdf:RDF><ns2:Work rdf:about=""><dc:format>image/svg+xml</dc:format><dc:type rdf:resource="http://purl.org/dc/dcmitype/StillImage" /><dc:title /></ns2:Work></rdf:RDF></metadata><ns4:namedview pagecolor="#ffffff" bordercolor="#666666" borderopacity="1" objecttolerance="10" gridtolerance="10" guidetolerance="10" ns5:pageopacity="0" ns5:pageshadow="2" ns5:window-width="1033" ns5:window-height="801" id="namedview10" showgrid="false" units="in" ns5:zoom="13.350176" ns5:cx="18.379726" ns5:cy="17.832758" ns5:window-x="0" ns5:window-y="0" ns5:window-maximized="0" ns5:current-layer="svg2" /><defs id="defs4"><style type="text/css" id="style6">
      path,circle,polygon {
        stroke:#000000;
        stroke-width: 3;
        stroke-linecap: round;
        stroke-linejoin: round;
        fill: none
      }</style></defs><path d="m 2.3057976,12.308083 c 0,0 0,0 0,15.039406 0,3.803057 0.195705,5.183007 9.7265644,5.142786 4.183579,-0.01766 18.291232,0.03192 23.973445,-0.04061 7.879566,-0.100583 6.687432,-2.935518 6.687432,-5.102175 0,-15.039406 0,-15.039406 0,-15.039406 z" id="path8" ns5:connector-curvature="0" style="fill:none;stroke:#000000;stroke-width:1.99999976;stroke-linecap:round;stroke-linejoin:round;stroke-miterlimit:4;stroke-dasharray:none" ns4:nodetypes="csssscc" /></g><text font-size="12" y="85.0" text-anchor="middle" x="85.0">Double-Stranded Nucleic Acid</text></g><g transform="translate(370, 40)" id="dsNA"><rect x="0" y="0" width="170" height="100" stroke="black" fill="white" rx="10" ry="10" /><g transform="translate(60, 20)"><metadata id="metadata187"><rdf:RDF><ns2:Work rdf:about=""><dc:format>image/svg+xml</dc:format><dc:type rdf:resource="http://purl.org/dc/dcmitype/StillImage" /><dc:title>Untitled VisBOL Design</dc:title></ns2:Work></rdf:RDF></metadata><ns4:namedview pagecolor="#ffffff" bordercolor="#666666" borderopacity="1" objecttolerance="10" gridtolerance="10" guidetolerance="10" ns5:pageopacity="0" ns5:pageshadow="2" ns5:window-width="1028" ns5:window-height="805" id="namedview185" showgrid="false" units="in" ns5:zoom="11.071429" ns5:cx="24.390746" ns5:cy="26.203067" ns5:window-x="9" ns5:window-y="3" ns5:window-maximized="0" ns5:current-layer="svg2" /><title id="title4">Untitled VisBOL Design</title><desc id="desc6">Generated by the VisBOL design visualizer at http://visbol.org</desc><defs id="SvgjsDefs1000"><marker id="SvgjsMarker1243" markerWidth="10" markerHeight="10" refX="5" refY="5" viewBox="0 0 10 10" orient="auto"><path id="SvgjsPath1244" d="M 5,0 5,10 Z" ns5:connector-curvature="0" style="fill:none;stroke:#000000" /></marker><marker id="SvgjsMarker1416" markerWidth="10" markerHeight="10" refX="5" refY="5" viewBox="0 0 10 10" orient="auto"><path id="SvgjsPath1417" d="m 4,0 6,5 -6,5 z" ns5:connector-curvature="0" style="fill:#000000;stroke:#000000" /></marker><marker id="SvgjsMarker1431" markerWidth="10" markerHeight="10" refX="5" refY="5" viewBox="0 0 10 10" orient="auto"><path id="SvgjsPath1432" d="m 4,0 6,5 -6,5 z" ns5:connector-curvature="0" style="fill:#000000;stroke:#000000" /></marker><marker id="SvgjsMarker1446" markerWidth="10" markerHeight="10" refX="5" refY="5" viewBox="0 0 10 10" orient="auto"><path id="SvgjsPath1447" d="m 4,0 6,5 -6,5 z" ns5:connector-curvature="0" style="fill:#000000;stroke:#000000" /></marker><marker id="SvgjsMarker1461" markerWidth="10" markerHeight="10" refX="5" refY="5" viewBox="0 0 10 10" orient="auto"><path id="SvgjsPath1462" d="m 4,0 6,5 -6,5 z" ns5:connector-curvature="0" style="fill:#000000;stroke:#000000" /></marker><marker id="SvgjsMarker1476" markerWidth="10" markerHeight="10" refX="5" refY="5" viewBox="0 0 10 10" orient="auto"><path id="SvgjsPath1477" d="m 4,0 6,5 -6,5 z" ns5:connector-curvature="0" style="fill:#000000;stroke:#000000" /></marker><marker id="SvgjsMarker1491" markerWidth="10" markerHeight="10" refX="5" refY="5" viewBox="0 0 10 10" orient="auto"><path id="SvgjsPath1492" d="m 4,0 6,5 -6,5 z" ns5:connector-curvature="0" style="fill:#000000;stroke:#000000" /></marker><marker id="SvgjsMarker1506" markerWidth="10" markerHeight="10" refX="5" refY="5" viewBox="0 0 10 10" orient="auto"><path id="SvgjsPath1507" d="m 4,0 6,5 -6,5 z" ns5:connector-curvature="0" style="fill:#000000;stroke:#000000" /></marker><marker id="SvgjsMarker1521" markerWidth="10" markerHeight="10" refX="5" refY="5" viewBox="0 0 10 10" orient="auto"><path id="SvgjsPath1522" d="m 4,0 6,5 -6,5 z" ns5:connector-curvature="0" style="fill:#000000;stroke:#000000" /></marker><marker id="SvgjsMarker1536" markerWidth="10" markerHeight="10" refX="5" refY="5" viewBox="0 0 10 10" orient="auto"><path id="SvgjsPath1537" d="m 4,0 6,5 -6,5 z" ns5:connector-curvature="0" style="fill:#000000;stroke:#000000" /></marker><marker id="SvgjsMarker1587" markerWidth="10" markerHeight="10" refX="5" refY="5" viewBox="0 0 10 10" orient="auto"><path id="SvgjsPath1588" d="M 5,0 5,10 Z" ns5:connector-curvature="0" style="fill:none;stroke:#000000" /></marker><marker id="SvgjsMarker1593" markerWidth="10" markerHeight="10" refX="5" refY="5" viewBox="0 0 10 10" orient="auto"><path id="SvgjsPath1594" d="m 4,0 6,5 -6,5 z" ns5:connector-curvature="0" style="fill:#000000;stroke:#000000" /></marker><marker id="SvgjsMarker1608" markerWidth="10" markerHeight="10" refX="5" refY="5" viewBox="0 0 10 10" orient="auto"><path id="SvgjsPath1609" d="m 4,0 6,5 -6,5 z" ns5:connector-curvature="0" style="fill:#000000;stroke:#000000" /></marker><marker id="SvgjsMarker1623" markerWidth="10" markerHeight="10" refX="5" refY="5" viewBox="0 0 10 10" orient="auto"><path id="SvgjsPath1624" d="m 4,0 6,5 -6,5 z" ns5:connector-curvature="0" style="fill:#000000;stroke:#000000" /></marker><marker id="SvgjsMarker1638" markerWidth="10" markerHeight="10" refX="5" refY="5" viewBox="0 0 10 10" orient="auto"><path id="SvgjsPath1639" d="m 4,0 6,5 -6,5 z" ns5:connector-curvature="0" style="fill:#000000;stroke:#000000" /></marker><marker id="SvgjsMarker1653" markerWidth="10" markerHeight="10" refX="5" refY="5" viewBox="0 0 10 10" orient="auto"><path id="SvgjsPath1654" d="m 4,0 6,5 -6,5 z" ns5:connector-curvature="0" style="fill:#000000;stroke:#000000" /></marker><marker id="SvgjsMarker1668" markerWidth="10" markerHeight="10" refX="5" refY="5" viewBox="0 0 10 10" orient="auto"><path id="SvgjsPath1669" d="m 4,0 6,5 -6,5 z" ns5:connector-curvature="0" style="fill:#000000;stroke:#000000" /></marker><marker id="SvgjsMarker1683" markerWidth="10" markerHeight="10" refX="5" refY="5" viewBox="0 0 10 10" orient="auto"><path id="SvgjsPath1684" d="m 4,0 6,5 -6,5 z" ns5:connector-curvature="0" style="fill:#000000;stroke:#000000" /></marker><marker id="SvgjsMarker1782" markerWidth="10" markerHeight="10" refX="5" refY="5" viewBox="0 0 10 10" orient="auto"><path id="SvgjsPath1783" d="m 4,0 6,5 -6,5 z" ns5:connector-curvature="0" style="fill:#000000;stroke:#000000" /></marker><marker id="SvgjsMarker1833" markerWidth="10" markerHeight="10" refX="5" refY="5" viewBox="0 0 10 10" orient="auto"><path id="SvgjsPath1834" d="M 5,0 5,10 Z" ns5:connector-curvature="0" style="fill:none;stroke:#000000" /></marker><marker id="SvgjsMarker1979" markerWidth="10" markerHeight="10" refX="5" refY="5" viewBox="0 0 10 10" orient="auto"><path id="SvgjsPath1980" d="m 4,0 6,5 -6,5 z" ns5:connector-curvature="0" style="fill:#000000;stroke:#000000" /></marker><marker id="SvgjsMarker2793" markerWidth="10" markerHeight="10" refX="5" refY="5" viewBox="0 0 10 10" orient="auto"><path id="SvgjsPath2794" d="M 5,0 5,10 Z" ns5:connector-curvature="0" style="fill:none;stroke:#000000" /></marker></defs><g id="SvgjsG1005" transform="matrix(0.69710032,0,0,0.69710032,11.138437,-15.289783)" /><g id="SvgjsG1006" transform="matrix(0.69710032,0,0,0.69710032,11.138437,-15.289783)" /><g id="SvgjsG1009" transform="matrix(0.69710032,0,0,0.69710032,15.321039,-213.26627)" /><g id="SvgjsG1205" transform="matrix(0.69710032,0,0,0.69710032,15.321039,-213.27716)" /><g id="SvgjsG1247" transform="matrix(0.69710032,0,0,0.69710032,85.031071,-130.50086)" /><g id="SvgjsG1260" transform="matrix(0.69710032,0,0,0.69710032,85.031071,-137.7507)" /><g id="SvgjsG1274" transform="matrix(0.69710032,0,0,0.69710032,85.031071,-137.7507)" /><g id="SvgjsG1288" transform="matrix(0.69710032,0,0,0.69710032,85.031071,-137.7507)" /><g id="SvgjsG1302" transform="matrix(0.69710032,0,0,0.69710032,85.031071,-137.7507)" /><g id="SvgjsG1316" transform="matrix(0.69710032,0,0,0.69710032,85.031071,-137.7507)" /><g id="SvgjsG1330" transform="matrix(0.69710032,0,0,0.69710032,85.031071,-137.7507)" /><g id="SvgjsG1344" transform="matrix(0.69710032,0,0,0.69710032,85.031071,-137.7507)" /><g id="SvgjsG1358" transform="matrix(0.69710032,0,0,0.69710032,85.031071,-137.7507)" /><g id="SvgjsG1372" transform="matrix(0.69710032,0,0,0.69710032,85.031071,-137.7507)" /><g id="SvgjsG1386" transform="matrix(0.69710032,0,0,0.69710032,85.031071,-137.7507)" /><g id="SvgjsG1400" transform="matrix(0.69710032,0,0,0.69710032,85.031071,-137.7507)" /><g id="SvgjsG1414" transform="matrix(0.69710032,0,0,0.69710032,85.031071,-137.7507)" /><g id="SvgjsG1429" transform="matrix(0.69710032,0,0,0.69710032,85.031071,-137.7507)" /><g id="SvgjsG1444" transform="matrix(0.69710032,0,0,0.69710032,85.031071,-137.7507)" /><g id="SvgjsG1459" transform="matrix(0.69710032,0,0,0.69710032,48.781854,-196.53586)" /><g id="SvgjsG1474" transform="matrix(0.69710032,0,0,0.69710032,48.781854,-196.53586)" /><g id="SvgjsG1489" transform="matrix(0.69710032,0,0,0.69710032,48.781854,-196.53586)" /><g id="SvgjsG1504" transform="matrix(0.69710032,0,0,0.69710032,48.781854,-196.53586)" /><g id="SvgjsG1519" transform="matrix(0.69710032,0,0,0.69710032,48.781854,-196.53586)" /><g id="SvgjsG1534" transform="matrix(0.69710032,0,0,0.69710032,48.781854,-196.53586)" /><g id="SvgjsG1549" transform="matrix(0.69710032,0,0,0.69710032,48.781854,-196.53586)" /><g id="SvgjsG1591" transform="matrix(0.69710032,0,0,0.69710032,85.031071,-130.50086)" /><g id="SvgjsG1606" transform="matrix(0.69710032,0,0,0.69710032,48.781854,-196.53586)" /><g id="SvgjsG1621" transform="matrix(0.69710032,0,0,0.69710032,48.781854,-196.53586)" /><g id="SvgjsG1636" transform="matrix(0.69710032,0,0,0.69710032,48.781854,-196.53586)" /><g id="SvgjsG1651" transform="matrix(0.69710032,0,0,0.69710032,48.781854,-196.53586)" /><g id="SvgjsG1666" transform="matrix(0.69710032,0,0,0.69710032,48.781854,-196.53586)" /><g id="SvgjsG1681" transform="matrix(0.69710032,0,0,0.69710032,48.781854,-196.53586)" /><g id="SvgjsG1696" transform="matrix(0.69710032,0,0,0.69710032,48.781854,-196.53586)" /><g id="SvgjsG1710" transform="matrix(0.69710032,0,0,0.69710032,48.781854,-204.90107)" /><g id="SvgjsG1724" transform="matrix(0.69710032,0,0,0.69710032,48.781854,-204.90107)" /><g id="SvgjsG1738" transform="matrix(0.69710032,0,0,0.69710032,48.781854,-204.90107)" /><g id="SvgjsG1752" transform="matrix(0.69710032,0,0,0.69710032,48.781854,-204.90107)" /><g id="SvgjsG1766" transform="matrix(0.69710032,0,0,0.69710032,48.781854,-204.90107)" /><g id="SvgjsG1780" transform="matrix(0.69710032,0,0,0.69710032,48.781854,-204.90107)" /><g id="SvgjsG1795" transform="matrix(0.69710032,0,0,0.69710032,48.781854,-196.53586)" /><g id="SvgjsG1837" transform="matrix(0.69710032,0,0,0.69710032,85.031071,-130.50086)" /><g id="SvgjsG1851" transform="matrix(0.69710032,0,0,0.69710032,48.781854,-204.90107)" /><g id="SvgjsG1865" transform="matrix(0.69710032,0,0,0.69710032,48.781854,-204.90107)" /><g id="SvgjsG1879" transform="matrix(0.69710032,0,0,0.69710032,48.781854,-204.90107)" /><g id="SvgjsG1893" transform="matrix(0.69710032,0,0,0.69710032,48.781854,-204.90107)" /><g id="SvgjsG1907" transform="matrix(0.69710032,0,0,0.69710032,48.781854,-204.90107)" /><g id="SvgjsG1921" transform="matrix(0.69710032,0,0,0.69710032,48.781854,-204.90107)" /><g id="SvgjsG1935" transform="matrix(0.69710032,0,0,0.69710032,48.781854,-204.90107)" /><g id="SvgjsG1949" transform="matrix(0.69710032,0,0,0.69710032,48.781854,-204.90107)" /><g id="SvgjsG1963" transform="matrix(0.69710032,0,0,0.69710032,48.781854,-204.90107)" /><g id="SvgjsG1977" transform="matrix(0.69710032,0,0,0.69710032,48.781854,-204.90107)" /><g id="SvgjsG1992" transform="matrix(0.69710032,0,0,0.69710032,48.781854,-196.53586)" /><g id="SvgjsG2006" transform="matrix(0.69710032,0,0,0.69710032,48.781854,-204.90107)" /><g id="SvgjsG2019" transform="matrix(0.69710032,0,0,0.69710032,48.781854,-198.2089)" /><g id="SvgjsG2033" transform="matrix(0.69710032,0,0,0.69710032,48.781854,-204.90107)" /><g id="SvgjsG2047" transform="matrix(0.69710032,0,0,0.69710032,48.781854,-204.90107)" /><g id="SvgjsG2061" transform="matrix(0.69710032,0,0,0.69710032,48.781854,-204.90107)" /><g id="SvgjsG2075" transform="matrix(0.69710032,0,0,0.69710032,48.781854,-204.90107)" /><g id="SvgjsG2089" transform="matrix(0.69710032,0,0,0.69710032,48.781854,-204.90107)" /><g id="SvgjsG2103" transform="matrix(0.69710032,0,0,0.69710032,48.781854,-204.90107)" /><g id="SvgjsG2117" transform="matrix(0.69710032,0,0,0.69710032,48.781854,-204.90107)" /><g id="SvgjsG2131" transform="matrix(0.69710032,0,0,0.69710032,48.781854,-204.90107)" /><g id="SvgjsG2145" transform="matrix(0.69710032,0,0,0.69710032,48.781854,-204.90107)" /><g id="SvgjsG2158" transform="matrix(0.69710032,0,0,0.69710032,48.781854,-196.53586)" /><g id="SvgjsG2172" transform="matrix(0.69710032,0,0,0.69710032,48.781854,-204.90107)" /><g id="SvgjsG2186" transform="matrix(0.69710032,0,0,0.69710032,48.781854,-204.90107)" /><g id="SvgjsG2200" transform="matrix(0.69710032,0,0,0.69710032,48.781854,-204.90107)" /><g id="SvgjsG2213" transform="matrix(0.69710032,0,0,0.69710032,48.781854,-196.53586)" /><g id="SvgjsG2227" transform="matrix(0.69710032,0,0,0.69710032,48.781854,-204.90107)" /><g id="SvgjsG2241" transform="matrix(0.69710032,0,0,0.69710032,48.781854,-204.90107)" /><g id="SvgjsG2255" transform="matrix(0.69710032,0,0,0.69710032,48.781854,-204.90107)" /><g id="SvgjsG2269" transform="matrix(0.69710032,0,0,0.69710032,48.781854,-204.90107)" /><g id="SvgjsG2283" transform="matrix(0.69710032,0,0,0.69710032,48.781854,-204.90107)" /><g id="SvgjsG2297" transform="matrix(0.69710032,0,0,0.69710032,48.781854,-204.90107)" /><g id="SvgjsG2311" transform="matrix(0.69710032,0,0,0.69710032,48.781854,-204.90107)" /><g id="SvgjsG2325" transform="matrix(0.69710032,0,0,0.69710032,48.781854,-204.90107)" /><g id="SvgjsG2339" transform="matrix(0.69710032,0,0,0.69710032,48.781854,-204.90107)" /><g id="SvgjsG2353" transform="matrix(0.69710032,0,0,0.69710032,48.781854,-204.90107)" /><g id="SvgjsG2367" transform="matrix(0.69710032,0,0,0.69710032,48.781854,-204.90107)" /><g id="SvgjsG2381" transform="matrix(0.69710032,0,0,0.69710032,48.781854,-204.90107)" /><g id="SvgjsG2395" transform="matrix(0.69710032,0,0,0.69710032,48.781854,-204.90107)" /><g id="SvgjsG2409" transform="matrix(0.69710032,0,0,0.69710032,48.781854,-204.90107)" /><g id="SvgjsG2423" transform="matrix(0.69710032,0,0,0.69710032,48.781854,-204.90107)" /><g id="SvgjsG2437" transform="matrix(0.69710032,0,0,0.69710032,48.781854,-204.90107)" /><g id="SvgjsG2451" transform="matrix(0.69710032,0,0,0.69710032,48.781854,-204.90107)" /><g id="SvgjsG2465" transform="matrix(0.69710032,0,0,0.69710032,48.781854,-204.90107)" /><g id="SvgjsG2479" transform="matrix(0.69710032,0,0,0.69710032,48.781854,-204.90107)" /><g id="SvgjsG2493" transform="matrix(0.69710032,0,0,0.69710032,48.781854,-204.90107)" /><g id="SvgjsG2507" transform="matrix(0.69710032,0,0,0.69710032,48.781854,-204.90107)" /><g id="SvgjsG2521" transform="matrix(0.69710032,0,0,0.69710032,48.781854,-204.90107)" /><g id="SvgjsG2535" transform="matrix(0.69710032,0,0,0.69710032,48.781854,-204.90107)" /><g id="SvgjsG2549" transform="matrix(0.69710032,0,0,0.69710032,48.781854,-204.90107)" /><g id="SvgjsG2563" transform="matrix(0.69710032,0,0,0.69710032,48.781854,-204.90107)" /><g id="SvgjsG2577" transform="matrix(0.69710032,0,0,0.69710032,48.781854,-204.90107)" /><g id="SvgjsG2591" transform="matrix(0.69710032,0,0,0.69710032,48.781854,-204.90107)" /><g id="SvgjsG2605" transform="matrix(0.69710032,0,0,0.69710032,48.781854,-204.90107)" /><g id="SvgjsG2619" transform="matrix(0.69710032,0,0,0.69710032,48.781854,-204.90107)" /><g id="SvgjsG2633" transform="matrix(0.69710032,0,0,0.69710032,48.781854,-204.90107)" /><g id="SvgjsG2647" transform="matrix(0.69710032,0,0,0.69710032,48.781854,-204.90107)" /><g id="SvgjsG2671" transform="matrix(0.69710032,0,0,0.69710032,48.781854,-195.00865)" /><g id="SvgjsG2685" transform="matrix(0.69710032,0,0,0.69710032,48.781854,-204.90107)" /><g id="SvgjsG2699" transform="matrix(0.69710032,0,0,0.69710032,48.781854,-204.90107)" /><g id="SvgjsG2713" transform="matrix(0.69710032,0,0,0.69710032,48.781854,-204.90107)" /><g id="SvgjsG2727" transform="matrix(0.69710032,0,0,0.69710032,48.781854,-204.90107)" /><g id="SvgjsG2741" transform="matrix(0.69710032,0,0,0.69710032,48.781854,-204.90107)" /><g id="SvgjsG2755" transform="matrix(0.69710032,0,0,0.69710032,48.781854,-196.12991)" /><g id="SvgjsG2797" transform="matrix(0.69710032,0,0,0.69710032,85.031071,-130.50086)" /><path style="fill:none;stroke:#000000;stroke-width:1.66639447;stroke-linecap:round;stroke-miterlimit:10" ns5:connector-curvature="0" stroke-miterlimit="10" d="m 3.2704672,17.307348 c 5.6582439,1.950843 7.1098348,12.983646 13.8575948,10.614295 5.325793,-1.871754 6.35277,-8.992987 11.73452,-10.805424" id="SvgjsPath2807" /><path style="fill:none;stroke:#000000;stroke-width:1.66639447;stroke-linecap:round;stroke-miterlimit:10" ns5:connector-curvature="0" stroke-miterlimit="10" d="M 28.102224,28.079819 C 22.496647,26.491465 22.17407,18.612303 17.151104,17.023949 10.577798,14.944588 8.3526825,27.397684 2.477194,28.234701" id="SvgjsPath2808" /><text id="SvgjsText2810" transform="scale(1.0402301,0.96132576)" style="font-size:6.66557741px;font-family:Helvetica, Arial, sans-serif;text-anchor:middle;stroke:#000000;stroke-width:0.5554648" x="15.063868" y="-5.4558725"><tspan style="stroke:#000000;stroke-width:0.5554648" id="SvgjsTspan2811" dy="11.553667" x="15.063868" /><tspan style="stroke:#000000;stroke-width:0.5554648" id="SvgjsTspan2812" alignment-baseline="middle" /></text>
<text style="font-size:8.36520386px;font-family:Helvetica, Arial, sans-serif" text-anchor="left" id="SvgjsText2816" x="-13.957174" y="-55.588593"><tspan x="-13.957174" dy="14.499686" id="SvgjsTspan2817" /><tspan alignment-baseline="middle" id="SvgjsTspan2818" /></text>
<path id="path5154" d="m 17.023582,17.055493 c 5.658244,1.950842 7.109835,12.983645 13.857595,10.614295 5.325793,-1.871754 6.352769,-8.992987 11.73452,-10.805425" stroke-miterlimit="10" ns5:connector-curvature="0" style="fill:none;stroke:#000000;stroke-width:1.66639447;stroke-linecap:round;stroke-miterlimit:10" /><path id="path5156" d="M 42.422014,28.142784 C 36.816437,26.554429 36.493861,18.675268 31.470894,17.086913 24.897588,15.007552 22.672473,27.460648 16.796984,28.297665" stroke-miterlimit="10" ns5:connector-curvature="0" style="fill:none;stroke:#000000;stroke-width:1.66639447;stroke-linecap:round;stroke-miterlimit:10" /></g><text font-size="12" y="85.0" text-anchor="middle" x="85.0">Double-Stranded Nucleic Acid</text></g><g transform="translate(10, 150)" id="macromolecule"><rect x="0" y="0" width="170" height="100" stroke="black" fill="white" rx="10" ry="10" /><g transform="translate(60, 20)"><metadata id="metadata12"><rdf:RDF><ns2:Work rdf:about=""><dc:format>image/svg+xml</dc:format><dc:type rdf:resource="http://purl.org/dc/dcmitype/StillImage" /><dc:title /></ns2:Work></rdf:RDF></metadata><ns4:namedview pagecolor="#ffffff" bordercolor="#666666" borderopacity="1" objecttolerance="10" gridtolerance="10" guidetolerance="10" ns5:pageopacity="0" ns5:pageshadow="2" ns5:window-width="944" ns5:window-height="738" id="namedview10" showgrid="false" units="in" ns5:zoom="13.350176" ns5:cx="22.603028" ns5:cy="27.618455" ns5:window-x="0" ns5:window-y="0" ns5:window-maximized="0" ns5:current-layer="svg2" /><defs id="defs4"><style type="text/css" id="style6">
      path,circle,polygon {
        stroke:#000000;
        stroke-width: 3;
        stroke-linecap: round;
        stroke-linejoin: round;
        fill: none
      }</style></defs><path style="opacity:1;fill:none;fill-opacity:1;stroke:#000000;stroke-width:1;stroke-linecap:butt;stroke-linejoin:miter;stroke-miterlimit:4;stroke-dasharray:none;stroke-dashoffset:0;stroke-opacity:1" d="m 22.91113,11.713864 a 9.5129835,9.5129835 0 0 0 -9.513671,9.513672 9.5129835,9.5129835 0 0 0 1.5625,5.210937 3.5205528,3.5205528 0 0 0 -2.384766,3.328126 3.5205528,3.5205528 0 0 0 3.519531,3.519531 3.5205528,3.5205528 0 0 0 3.501953,-3.154297 9.5129835,9.5129835 0 0 0 3.314453,0.607422 9.5129835,9.5129835 0 0 0 9.513672,-9.511719 9.5129835,9.5129835 0 0 0 -9.513672,-9.513672 z" id="path4135" ns5:connector-curvature="0" /></g><text font-size="12" y="85.0" text-anchor="middle" x="85.0">Macromolecule</text></g><g transform="translate(190, 150)" id="macromolecule"><rect x="0" y="0" width="170" height="100" stroke="black" fill="white" rx="10" ry="10" /><g transform="translate(60, 20)"><metadata id="metadata12"><rdf:RDF><ns2:Work rdf:about=""><dc:format>image/svg+xml</dc:format><dc:type rdf:resource="http://purl.org/dc/dcmitype/StillImage" /><dc:title /></ns2:Work></rdf:RDF></metadata><ns4:namedview pagecolor="#ffffff" bordercolor="#666666" borderopacity="1" objecttolerance="10" gridtolerance="10" guidetolerance="10" ns5:pageopacity="0" ns5:pageshadow="2" ns5:window-width="944" ns5:window-height="738" id="namedview10" showgrid="false" units="in" ns5:zoom="13.350176" ns5:cx="22.603028" ns5:cy="27.618455" ns5:window-x="0" ns5:window-y="0" ns5:window-maximized="0" ns5:current-layer="svg2" /><defs id="defs4"><style type="text/css" id="style6">
      path,circle,polygon {
        stroke:#000000;
        stroke-width: 3;
        stroke-linecap: round;
        stroke-linejoin: round;
        fill: none
      }</style></defs><rect style="opacity:1;fill:none;fill-opacity:1;stroke:#000000;stroke-width:0.99999988;stroke-linecap:butt;stroke-linejoin:miter;stroke-miterlimit:4;stroke-dasharray:none;stroke-dashoffset:0;stroke-opacity:1" id="rect4135" width="31.759876" height="13.857493" x="6.620059" y="15.571251" ry="4.0074377" /></g><text font-size="12" y="85.0" text-anchor="middle" x="85.0">Macromolecule</text></g><g transform="translate(370, 150)" id="no-glyph-assigned"><rect x="0" y="0" width="170" height="100" stroke="black" fill="white" rx="10" ry="10" /><g transform="translate(60, 20)"><defs id="defs4" />
  <ns4:namedview id="base" pagecolor="#ffffff" bordercolor="#666666" borderopacity="1.0" ns5:pageopacity="0.0" ns5:pageshadow="2" ns5:zoom="11.192134" ns5:cx="20.020233" ns5:cy="19.623291" ns5:document-units="px" ns5:current-layer="layer1" showgrid="false" fit-margin-top="0" fit-margin-left="0" fit-margin-right="0" fit-margin-bottom="0" ns5:window-width="949" ns5:window-height="760" ns5:window-x="0" ns5:window-y="1" ns5:window-maximized="0" units="in">
    <ns5:grid type="xygrid" id="grid4201" />
  </ns4:namedview>
  <metadata id="metadata7">
    <rdf:RDF>
      <ns2:Work rdf:about="">
        <dc:format>image/svg+xml</dc:format>
        <dc:type rdf:resource="http://purl.org/dc/dcmitype/StillImage" />
        <dc:title />
      </ns2:Work>
    </rdf:RDF>
  </metadata>
  <g ns5:label="Layer 1" ns5:groupmode="layer" id="layer1" transform="translate(-95.34347,-369.70473)">
    <g id="g4159" transform="matrix(0.36747894,0,0,0.36747894,68.26791,261.3534)" />
    <text xml:space="preserve" style="font-style:normal;font-variant:normal;font-weight:bold;font-stretch:normal;font-size:20px;line-height:125%;font-family:Arial;-inkscape-font-specification:'Sans Bold';text-align:center;letter-spacing:0px;word-spacing:0px;text-anchor:middle;fill:#000000;fill-opacity:1;stroke:none;stroke-width:1px;stroke-linecap:butt;stroke-linejoin:miter;stroke-opacity:1" x="117.3232" y="396.29913" id="text4203" ns4:linespacing="125%"><tspan ns4:role="line" id="tspan4205" x="117.3232" y="396.29913">[ ]</tspan></text>
  </g>
</g><text font-size="12" y="85.0" text-anchor="middle" x="85.0">No Glyph Assigned</text></g><g transform="translate(10, 260)" id="protein"><rect x="0" y="0" width="170" height="100" stroke="black" fill="white" rx="10" ry="10" /><g transform="translate(60, 20)"><metadata id="metadata12"><rdf:RDF><ns2:Work rdf:about=""><dc:format>image/svg+xml</dc:format><dc:type rdf:resource="http://purl.org/dc/dcmitype/StillImage" /><dc:title /></ns2:Work></rdf:RDF></metadata><ns4:namedview pagecolor="#ffffff" bordercolor="#666666" borderopacity="1" objecttolerance="10" gridtolerance="10" guidetolerance="10" ns5:pageopacity="0" ns5:pageshadow="2" ns5:window-width="944" ns5:window-height="738" id="namedview10" showgrid="false" units="in" ns5:zoom="13.350176" ns5:cx="22.603028" ns5:cy="27.618455" ns5:window-x="0" ns5:window-y="0" ns5:window-maximized="0" ns5:current-layer="svg2" /><defs id="defs4"><style type="text/css" id="style6">
      path,circle,polygon {
        stroke:#000000;
        stroke-width: 3;
        stroke-linecap: round;
        stroke-linejoin: round;
        fill: none
      }</style></defs><rect style="opacity:1;fill:none;fill-opacity:1;stroke:#000000;stroke-width:0.99999988;stroke-linecap:butt;stroke-linejoin:miter;stroke-miterlimit:4;stroke-dasharray:none;stroke-dashoffset:0;stroke-opacity:1" id="rect4135" width="31.759876" height="13.857493" x="6.620059" y="15.571251" ry="6.9287467" /></g><text font-size="12" y="85.0" text-anchor="middle" x="85.0">Protein</text></g><g transform="translate(190, 260)" id="simple-chemical"><rect x="0" y="0" width="170" height="100" stroke="black" fill="white" rx="10" ry="10" /><g transform="translate(60, 20)"><metadata id="metadata12"><rdf:RDF><ns2:Work rdf:about=""><dc:format>image/svg+xml</dc:format><dc:type rdf:resource="http://purl.org/dc/dcmitype/StillImage" /><dc:title /></ns2:Work></rdf:RDF></metadata><ns4:namedview pagecolor="#ffffff" bordercolor="#666666" borderopacity="1" objecttolerance="10" gridtolerance="10" guidetolerance="10" ns5:pageopacity="0" ns5:pageshadow="2" ns5:window-width="944" ns5:window-height="738" id="namedview10" showgrid="false" units="in" ns5:zoom="13.350176" ns5:cx="21.067468" ns5:cy="27.618455" ns5:window-x="0" ns5:window-y="0" ns5:window-maximized="0" ns5:current-layer="svg2" /><defs id="defs4"><style type="text/css" id="style6">
      path,circle,polygon {
        stroke:#000000;
        stroke-width: 3;
        stroke-linecap: round;
        stroke-linejoin: round;
        fill: none
      }</style></defs><path ns4:type="star" style="opacity:1;fill:none;fill-opacity:1;stroke:#000000;stroke-width:1;stroke-linecap:round;stroke-linejoin:round;stroke-miterlimit:4;stroke-dasharray:none;stroke-dashoffset:0;stroke-opacity:1" id="path6514" ns4:sides="5" ns4:cx="22.499997" ns4:cy="22.844517" ns4:r1="3.6079204" ns4:r2="2.918869" ns4:arg1="-1.5707963" ns4:arg2="-0.9424778" ns5:flatsided="true" ns5:rounded="0" ns5:randomized="0" d="m 22.499997,19.236596 3.431337,2.493012 -1.310654,4.033778 -4.241365,0 -1.310654,-4.033778 z" ns5:transform-center-y="-0.34452577" /></g><text font-size="12" y="85.0" text-anchor="middle" x="85.0">Simple Chemical</text></g><g transform="translate(370, 260)" id="simple-chemical"><rect x="0" y="0" width="170" height="100" stroke="black" fill="white" rx="10" ry="10" /><g transform="translate(60, 20)"><metadata id="metadata12"><rdf:RDF><ns2:Work rdf:about=""><dc:format>image/svg+xml</dc:format><dc:type rdf:resource="http://purl.org/dc/dcmitype/StillImage" /><dc:title /></ns2:Work></rdf:RDF></metadata><ns4:namedview pagecolor="#ffffff" bordercolor="#666666" borderopacity="1" objecttolerance="10" gridtolerance="10" guidetolerance="10" ns5:pageopacity="0" ns5:pageshadow="2" ns5:window-width="944" ns5:window-height="738" id="namedview10" showgrid="false" units="in" ns5:zoom="13.350176" ns5:cx="21.067468" ns5:cy="27.618455" ns5:window-x="0" ns5:window-y="0" ns5:window-maximized="0" ns5:current-layer="svg2" /><defs id="defs4"><style type="text/css" id="style6">
      path,circle,polygon {
        stroke:#000000;
        stroke-width: 3;
        stroke-linecap: round;
        stroke-linejoin: round;
        fill: none
      }</style></defs><path ns4:type="star" style="opacity:1;fill:none;fill-opacity:1;stroke:#000000;stroke-width:1.02290658;stroke-linecap:round;stroke-linejoin:round;stroke-miterlimit:4;stroke-dasharray:none;stroke-dashoffset:0;stroke-opacity:1" id="path7101" ns4:sides="6" ns4:cx="22.499997" ns4:cy="22.499996" ns4:r1="3.7000523" ns4:r2="3.2043395" ns4:arg1="0.52359878" ns4:arg2="1.0471976" ns5:flatsided="true" ns5:rounded="0" ns5:randomized="0" d="m 25.704337,24.350022 -3.20434,1.850026 -3.204339,-1.850026 0,-3.700052 3.204339,-1.850026 3.20434,1.850026 z" transform="matrix(1.0035267,0,0,0.95235534,-0.07935076,1.2593864)" /></g><text font-size="12" y="85.0" text-anchor="middle" x="85.0">Simple Chemical</text></g><g transform="translate(10, 370)" id="simple-chemical"><rect x="0" y="0" width="170" height="100" stroke="black" fill="white" rx="10" ry="10" /><g transform="translate(60, 20)"><metadata id="metadata12"><rdf:RDF><ns2:Work rdf:about=""><dc:format>image/svg+xml</dc:format><dc:type rdf:resource="http://purl.org/dc/dcmitype/StillImage" /><dc:title /></ns2:Work></rdf:RDF></metadata><ns4:namedview pagecolor="#ffffff" bordercolor="#666666" borderopacity="1" objecttolerance="10" gridtolerance="10" guidetolerance="10" ns5:pageopacity="0" ns5:pageshadow="2" ns5:window-width="944" ns5:window-height="738" id="namedview10" showgrid="false" units="in" ns5:zoom="13.350176" ns5:cx="21.067468" ns5:cy="27.618455" ns5:window-x="0" ns5:window-y="0" ns5:window-maximized="0" ns5:current-layer="svg2" /><defs id="defs4"><style type="text/css" id="style6">
      path,circle,polygon {
        stroke:#000000;
        stroke-width: 3;
        stroke-linecap: round;
        stroke-linejoin: round;
        fill: none
      }</style></defs><path style="opacity:1;fill:none;fill-opacity:1;stroke:#000000;stroke-width:0.99999988;stroke-linecap:round;stroke-linejoin:round;stroke-miterlimit:4;stroke-dasharray:none;stroke-dashoffset:0;stroke-opacity:1" id="path4755" ns4:type="arc" ns4:cx="22.531046" ns4:cy="22.45475" ns4:rx="3.5288827" ns4:ry="3.528882" ns4:start="4.7398954" ns4:end="4.7169966" ns4:open="true" d="m 22.628101,18.927203 a 3.5288827,3.528882 0 0 1 3.430991,3.604406 3.5288827,3.528882 0 0 1 -3.584707,3.451568 3.5288827,3.528882 0 0 1 -3.472033,-3.564888 3.5288827,3.528882 0 0 1 3.544954,-3.492384" /></g><text font-size="12" y="85.0" text-anchor="middle" x="85.0">Simple Chemical</text></g><g transform="translate(190, 370)" id="simple-chemical"><rect x="0" y="0" width="170" height="100" stroke="black" fill="white" rx="10" ry="10" /><g transform="translate(60, 20)"><metadata id="metadata12"><rdf:RDF><ns2:Work rdf:about=""><dc:format>image/svg+xml</dc:format><dc:type rdf:resource="http://purl.org/dc/dcmitype/StillImage" /><dc:title /></ns2:Work></rdf:RDF></metadata><ns4:namedview pagecolor="#ffffff" bordercolor="#666666" borderopacity="1" objecttolerance="10" gridtolerance="10" guidetolerance="10" ns5:pageopacity="0" ns5:pageshadow="2" ns5:window-width="944" ns5:window-height="738" id="namedview10" showgrid="false" units="in" ns5:zoom="13.350176" ns5:cx="21.067468" ns5:cy="27.618455" ns5:window-x="0" ns5:window-y="0" ns5:window-maximized="0" ns5:current-layer="svg2" /><defs id="defs4"><style type="text/css" id="style6">
      path,circle,polygon {
        stroke:#000000;
        stroke-width: 3;
        stroke-linecap: round;
        stroke-linejoin: round;
        fill: none
      }</style></defs><path ns4:type="star" style="opacity:1;fill:none;fill-opacity:1;stroke:#000000;stroke-width:0.99420905;stroke-linecap:round;stroke-linejoin:round;stroke-miterlimit:4;stroke-dasharray:none;stroke-dashoffset:0;stroke-opacity:1" id="path5342" ns4:sides="3" ns4:cx="22.171989" ns4:cy="23.202534" ns4:r1="3.9876118" ns4:r2="1.993806" ns4:arg1="1.5707963" ns4:arg2="2.6179939" ns5:flatsided="true" ns5:rounded="0" ns5:randomized="0" d="m 22.17199,27.190145 -3.453374,-5.981417 6.906746,0 z" ns5:transform-center-y="0.9959324" transform="matrix(1.0126691,0,0,0.99902628,0.04710878,-1.675851)" /></g><text font-size="12" y="85.0" text-anchor="middle" x="85.0">Simple Chemical</text></g><g transform="translate(370, 370)" id="ssNA"><rect x="0" y="0" width="170" height="100" stroke="black" fill="white" rx="10" ry="10" /><g transform="translate(60, 20)"><metadata id="metadata12"><rdf:RDF><ns2:Work rdf:about=""><dc:format>image/svg+xml</dc:format><dc:type rdf:resource="http://purl.org/dc/dcmitype/StillImage" /><dc:title /></ns2:Work></rdf:RDF></metadata><ns4:namedview pagecolor="#ffffff" bordercolor="#666666" borderopacity="1" objecttolerance="10" gridtolerance="10" guidetolerance="10" ns5:pageopacity="0" ns5:pageshadow="2" ns5:window-width="1033" ns5:window-height="801" id="namedview10" showgrid="false" units="in" ns5:zoom="13.350176" ns5:cx="18.379726" ns5:cy="17.832758" ns5:window-x="0" ns5:window-y="0" ns5:window-maximized="0" ns5:current-layer="svg2" /><defs id="defs4"><style type="text/css" id="style6">
      path,circle,polygon {
        stroke:#000000;
        stroke-width: 3;
        stroke-linecap: round;
        stroke-linejoin: round;
        fill: none
      }</style></defs><path d="m 2.3057976,12.308083 c 0,0 0,0 0,15.039406 0,3.803057 0.195705,5.183007 9.7265644,5.142786 4.183579,-0.01766 18.291232,0.03192 23.973445,-0.04061 7.879566,-0.100583 6.687432,-2.935518 6.687432,-5.102175 0,-15.039406 0,-15.039406 0,-15.039406 z" id="path8" ns5:connector-curvature="0" style="fill:none;stroke:#000000;stroke-width:1.99999976;stroke-linecap:round;stroke-linejoin:round;stroke-miterlimit:4;stroke-dasharray:none" ns4:nodetypes="csssscc" /></g><text font-size="12" y="85.0" text-anchor="middle" x="85.0">Single-Stranded Nucleic Acid</text></g><g transform="translate(10, 480)" id="ssNA"><rect x="0" y="0" width="170" height="100" stroke="black" fill="white" rx="10" ry="10" /><g transform="translate(60, 20)"><metadata id="metadata21">
    <rdf:RDF>
      <ns2:Work rdf:about="">
        <dc:format>image/svg+xml</dc:format>
        <dc:type rdf:resource="http://purl.org/dc/dcmitype/StillImage" />
        <dc:title />
      </ns2:Work>
    </rdf:RDF>
  </metadata>
  <defs id="defs19" />
  <ns4:namedview pagecolor="#ffffff" bordercolor="#666666" borderopacity="1" objecttolerance="10" gridtolerance="10" guidetolerance="10" ns5:pageopacity="0" ns5:pageshadow="2" ns5:window-width="1056" ns5:window-height="818" id="namedview17" showgrid="false" units="in" ns5:zoom="12.836708" ns5:cx="21.816898" ns5:cy="25.418947" ns5:window-x="0" ns5:window-y="0" ns5:window-maximized="0" ns5:current-layer="svg2" />
  
  <g id="g12" transform="matrix(0.47148661,0,0,0.47148661,-1.4693867,-0.1300458)">
    <title id="title14">Layer 1</title>
    <path id="svg_6" d="m 12.999996,42.249994 c 5.749999,17.999995 11.250003,12.499991 14.499998,6 3.999995,-7.999989 6.999998,-7.500002 12.75,0.25 5.750002,7.750002 7,6.249998 11.500001,-0.500001 4.500001,-6.749999 6.999999,-7.249997 11.749999,0 4.750001,7.249997 6.000001,6.999999 11.000001,-1e-6 5,-7 6.000006,-10.499993 15,5.500001" ns5:connector-curvature="0" style="fill:#ffffff;stroke:#000000;stroke-width:3" />
  </g>
</g><text font-size="12" y="85.0" text-anchor="middle" x="85.0">Single-Stranded Nucleic Acid</text></g><g transform="translate(190, 480)" id="unspecified"><rect x="0" y="0" width="170" height="100" stroke="black" fill="white" rx="10" ry="10" /><g transform="translate(60, 20)"><metadata id="metadata12"><rdf:RDF><ns2:Work rdf:about=""><dc:format>image/svg+xml</dc:format><dc:type rdf:resource="http://purl.org/dc/dcmitype/StillImage" /><dc:title /></ns2:Work></rdf:RDF></metadata><ns4:namedview pagecolor="#ffffff" bordercolor="#666666" borderopacity="1" objecttolerance="10" gridtolerance="10" guidetolerance="10" ns5:pageopacity="0" ns5:pageshadow="2" ns5:window-width="944" ns5:window-height="738" id="namedview10" showgrid="false" units="in" ns5:zoom="13.350176" ns5:cx="22.603028" ns5:cy="27.618455" ns5:window-x="0" ns5:window-y="0" ns5:window-maximized="0" ns5:current-layer="svg2" /><defs id="defs4"><style type="text/css" id="style6">
      path,circle,polygon {
        stroke:#000000;
        stroke-width: 3;
        stroke-linecap: round;
        stroke-linejoin: round;
        fill: none
      }</style></defs><ellipse style="opacity:1;fill:none;fill-opacity:1;stroke:#000000;stroke-width:0.99999988;stroke-linecap:butt;stroke-linejoin:miter;stroke-miterlimit:4;stroke-dasharray:none;stroke-dashoffset:0;stroke-opacity:1" id="path4138" cx="22.499998" cy="22.499998" rx="16.32937" ry="9.2508135" /></g><text font-size="12" y="85.0" text-anchor="middle" x="85.0">Unspecified</text></g><g transform="translate(370, 480)" id="unspecified"><rect x="0" y="0" width="170" height="100" stroke="black" fill="white" rx="10" ry="10" /><g transform="translate(60, 20)"><metadata id="metadata12"><rdf:RDF><ns2:Work rdf:about=""><dc:format>image/svg+xml</dc:format><dc:type rdf:resource="http://purl.org/dc/dcmitype/StillImage" /><dc:title /></ns2:Work></rdf:RDF></metadata><ns4:namedview pagecolor="#ffffff" bordercolor="#666666" borderopacity="1" objecttolerance="10" gridtolerance="10" guidetolerance="10" ns5:pageopacity="0" ns5:pageshadow="2" ns5:window-width="944" ns5:window-height="738" id="namedview10" showgrid="false" units="in" ns5:zoom="13.350176" ns5:cx="22.603028" ns5:cy="27.618455" ns5:window-x="0" ns5:window-y="0" ns5:window-maximized="0" ns5:current-layer="svg2" /><defs id="defs4"><style type="text/css" id="style6">
      path,circle,polygon {
        stroke:#000000;
        stroke-width: 3;
        stroke-linecap: round;
        stroke-linejoin: round;
        fill: none
      }</style></defs><rect style="opacity:1;fill:none;fill-opacity:1;stroke:#000000;stroke-width:1.72234631;stroke-linejoin:miter;stroke-miterlimit:4;stroke-dasharray:none;stroke-dashoffset:0;stroke-opacity:1" id="rect4136" width="18.319849" height="18.319849" x="21.229794" y="-11.238423" ry="0" transform="matrix(0.70710678,0.70710678,-0.70710678,0.70710678,0,0)" /><text xml:space="preserve" style="font-style:normal;font-variant:normal;font-weight:bold;font-stretch:normal;font-size:20px;line-height:125%;font-family:Arial;-inkscape-font-specification:'Sans Bold';text-align:center;letter-spacing:0px;word-spacing:0px;text-anchor:middle;fill:#000000;fill-opacity:1;stroke:none;stroke-width:1px;stroke-linecap:butt;stroke-linejoin:miter;stroke-opacity:1" x="22.696327" y="26.498367" id="text4141" ns4:linespacing="125%"><tspan ns4:role="line" id="tspan4143" x="22.696327" y="26.498367">?</tspan></text>
</g><text font-size="12" y="85.0" text-anchor="middle" x="85.0">Unspecified</text></g></svg>