<?xml version="1.0" encoding="utf-8"?>
<!-- Generator: Adobe Illustrator 14.0.0, SVG Export Plug-In . SVG Version: 6.00 Build 43363)  -->
<!DOCTYPE svg PUBLIC "-//W3C//DTD SVG 1.1//EN" "http://www.w3.org/Graphics/SVG/1.1/DTD/svg11.dtd">
<svg version="1.1" id="Layer_1" xmlns="http://www.w3.org/2000/svg" xmlns:xlink="http://www.w3.org/1999/xlink" x="0px" y="0px"
	 width="55px" height="55px" viewBox="221.5 222.5 55 55" enable-background="new 221.5 222.5 55 55" xml:space="preserve">
<path id="MGA_2_" fill="none" stroke="#000000" stroke-width="2" d="M244.129,271.934v-15.328c4.311-1.11,7.5-5.014,7.5-9.671
	c0-1.018-0.154-1.999-0.436-2.924l9.07-5.237c0.704,0.38,1.497,0.614,2.354,0.614c2.762,0,5-2.238,5-5c0-2.761-2.238-5-5-5
	c-2.763,0-5,2.239-5,5c0,0.045,0.012,0.088,0.014,0.132l-9.059,5.229c-1.799-1.74-4.244-2.814-6.945-2.814c-5.521,0-10,4.477-10,10
	c0,4.658,3.189,8.561,7.5,9.671v15.328"/>
</svg>
