<?xml version="1.0" encoding="UTF-8" standalone="no"?>
<!-- Generator: Adobe Illustrator 14.0.0, SVG Export Plug-In . SVG Version: 6.00 Build 43363)  -->

<svg
   xmlns:dc="http://purl.org/dc/elements/1.1/"
   xmlns:cc="http://creativecommons.org/ns#"
   xmlns:rdf="http://www.w3.org/1999/02/22-rdf-syntax-ns#"
   xmlns:svg="http://www.w3.org/2000/svg"
   xmlns="http://www.w3.org/2000/svg"
   xmlns:sodipodi="http://sodipodi.sourceforge.net/DTD/sodipodi-0.dtd"
   xmlns:inkscape="http://www.inkscape.org/namespaces/inkscape"
   version="1.1"
   id="Layer_1"
   x="0px"
   y="0px"
   width="0.5in"
   height="0.5in"
   viewBox="221.5 222.5 45 45"
   enable-background="new 221.5 222.5 55 55"
   xml:space="preserve"
   inkscape:version="0.91 r13725"
   sodipodi:docname="aptamer-B-specification.svg"
   inkscape:export-filename="/Users/jakebeal/projects/SBOL/SBOLv-realizations/Glyphs/aptamer/aptamer-B-specification.png"
   inkscape:export-xdpi="300"
   inkscape:export-ydpi="300"><metadata
     id="metadata8"><rdf:RDF><cc:Work
         rdf:about=""><dc:format>image/svg+xml</dc:format><dc:type
           rdf:resource="http://purl.org/dc/dcmitype/StillImage" /><dc:title /></cc:Work></rdf:RDF></metadata><defs
     id="defs6" /><sodipodi:namedview
     pagecolor="#ffffff"
     bordercolor="#666666"
     borderopacity="1"
     objecttolerance="10"
     gridtolerance="10"
     guidetolerance="10"
     inkscape:pageopacity="0"
     inkscape:pageshadow="2"
     inkscape:window-width="1001"
     inkscape:window-height="736"
     id="namedview4"
     showgrid="false"
     units="in"
     inkscape:zoom="12.136524"
     inkscape:cx="27.5"
     inkscape:cy="22.900907"
     inkscape:window-x="0"
     inkscape:window-y="0"
     inkscape:window-maximized="0"
     inkscape:current-layer="Layer_1" /><path
     id="MGA_2_"
     d="m 240.50686,260.45718 c 2.77845,-0.71539 4.83378,-3.23154 4.83378,-6.23299 0,-0.65611 -0.0993,-1.28837 -0.28102,-1.88454 l 5.84567,-3.37526 c 0.45372,0.24491 0.96483,0.39573 1.51716,0.39573 1.78013,0 3.22254,-1.44241 3.22254,-3.22253 0,-1.77948 -1.44241,-3.22252 -3.22254,-3.22252 -1.78076,0 -3.22252,1.44304 -3.22252,3.22252 0,0.029 0.007,0.0567 0.009,0.0851 l -5.83856,3.37012 c -0.66821,-0.64628 -1.4747,-1.15001 -2.37135,-1.46085 -0.65921,-0.22852 0.81303,-18.45811 -1.96399,-18.43855 -2.92057,0.0205 -1.31008,18.16618 -1.85637,18.31673 -2.72606,0.75124 -4.72941,3.24873 -4.72941,6.21409 0,3.00209 2.05532,5.51759 4.83378,6.23299"
     inkscape:connector-curvature="0"
     style="fill:#cccccc;stroke:#000000;stroke-width:1.28900838"
     sodipodi:nodetypes="csccssssccssssc" /><path
     style="opacity:0.5;fill:none;fill-opacity:1;stroke:#999999;stroke-width:0.5;stroke-miterlimit:4;stroke-dasharray:1, 0.5;stroke-dashoffset:0;stroke-opacity:1"
     d="m 221.4176,260.64388 c 45.15297,0 45.15297,0 45.15297,0"
     id="path4136"
     inkscape:connector-curvature="0" /><rect
     style="opacity:0.5;fill:none;fill-opacity:1;stroke:#999999;stroke-width:0.45227987;stroke-miterlimit:4;stroke-dasharray:0.90455973, 0.45227986;stroke-dashoffset:0;stroke-opacity:1"
     id="rect4138"
     width="24.354517"
     height="31.522961"
     x="231.82274"
     y="229.14478" /></svg>